<svg aria-hidden="true" style="position: absolute; width: 0; height: 0; overflow: hidden;" version="1.1" xmlns="http://www.w3.org/2000/svg" xmlns:xlink="http://www.w3.org/1999/xlink">
<defs>
<symbol id="icon-comment-1" viewBox="0 0 32 32">
<path fill="#000" style="fill: var(--color1, #000)" d="M16 32c8.822 0 16-7.177 16-16 0-1.523-0.213-3.023-0.633-4.461-0.207-0.707-0.945-1.113-1.654-0.905-0.707 0.207-1.112 0.947-0.905 1.654 0.349 1.194 0.526 2.443 0.526 3.712 0 7.352-5.981 13.333-13.333 13.333s-13.333-5.981-13.333-13.333c0-7.352 5.981-13.333 13.333-13.333 2.672 0 5.243 0.781 7.434 2.259 0.61 0.412 1.439 0.25 1.851-0.36s0.251-1.439-0.36-1.851c-2.633-1.776-5.719-2.715-8.925-2.715-8.822 0-16 7.177-16 16s7.178 16 16 16z"></path>
<path fill="#ddd0a4" style="fill: var(--color2, #ddd0a4)" d="M29.724 3.057l-13.724 13.723-4.391-4.39c-0.521-0.521-1.365-0.521-1.885 0s-0.521 1.365 0 1.885l5.333 5.333c0.261 0.261 0.601 0.391 0.943 0.391s0.682-0.13 0.943-0.391l14.667-14.667c0.521-0.521 0.521-1.365 0-1.885s-1.365-0.521-1.885 0z"></path>
</symbol>
<symbol id="icon-google-docs-1" viewBox="0 0 32 32">
<path fill="#000" style="fill: var(--color1, #000)" d="M27.913 7.774l-7.5-7.5c-0.175-0.175-0.414-0.275-0.663-0.275h-13.125c-1.551 0-2.812 1.262-2.812 2.813v26.375c0 1.551 1.262 2.813 2.812 2.813h18.75c1.551 0 2.813-1.262 2.813-2.813v-20.75c0-0.256-0.107-0.496-0.275-0.663zM20.687 3.201l4.299 4.299h-3.362c-0.517 0-0.938-0.421-0.938-0.938v-3.362zM25.375 30.125h-18.75c-0.517 0-0.938-0.421-0.938-0.938v-26.375c0-0.517 0.421-0.938 0.938-0.938h12.188v4.687c0 1.551 1.262 2.813 2.813 2.813h4.688v19.813c0 0.517-0.421 0.938-0.938 0.938z"></path>
<path fill="#ddd0a4" style="fill: var(--color2, #ddd0a4)" d="M21.625 13.25h-11.25c-0.518 0-0.938 0.42-0.938 0.938s0.42 0.938 0.938 0.938h11.25c0.518 0 0.938-0.42 0.938-0.938s-0.42-0.938-0.938-0.938z"></path>
<path fill="#ddd0a4" style="fill: var(--color2, #ddd0a4)" d="M21.625 17h-11.25c-0.518 0-0.938 0.42-0.938 0.938s0.42 0.938 0.938 0.938h11.25c0.518 0 0.938-0.42 0.938-0.938s-0.42-0.938-0.938-0.938z"></path>
<path fill="#ddd0a4" style="fill: var(--color2, #ddd0a4)" d="M21.625 20.75h-11.25c-0.518 0-0.938 0.42-0.938 0.938s0.42 0.938 0.938 0.938h11.25c0.518 0 0.938-0.42 0.938-0.938s-0.42-0.938-0.938-0.938z"></path>
<path fill="#ddd0a4" style="fill: var(--color2, #ddd0a4)" d="M17.875 24.5h-7.5c-0.518 0-0.938 0.42-0.938 0.938s0.42 0.938 0.938 0.938h7.5c0.518 0 0.938-0.42 0.938-0.938s-0.42-0.938-0.938-0.938z"></path>
</symbol>
<symbol id="icon-Group-73" viewBox="0 0 37 32">
<path fill="none" stroke="#000" style="stroke: var(--color1, #000)" stroke-linejoin="miter" stroke-linecap="butt" stroke-miterlimit="4" stroke-width="2.0317" d="M3.556 4.571h29.46v25.397c0 0.561-0.455 1.016-1.016 1.016h-27.429c-0.561 0-1.016-0.455-1.016-1.016v-25.397z"></path>
<path fill="#fff" style="fill: var(--color3, #fff); stroke: var(--color1, #000)" stroke="#000" stroke-linejoin="miter" stroke-linecap="butt" stroke-miterlimit="4" stroke-width="2.0317" d="M2.032 1.016h32.508c0.561 0 1.016 0.455 1.016 1.016v3.048c0 0.561-0.455 1.016-1.016 1.016h-32.508c-0.561 0-1.016-0.455-1.016-1.016v-3.048c0-0.561 0.455-1.016 1.016-1.016z"></path>
<path fill="none" stroke="#ddd0a4" style="stroke: var(--color2, #ddd0a4)" stroke-linejoin="miter" stroke-linecap="butt" stroke-miterlimit="4" stroke-width="1.5238" d="M13.46 12.444h9.651c0.842 0 1.524 0.682 1.524 1.524s-0.682 1.524-1.524 1.524h-9.651c-0.842 0-1.524-0.682-1.524-1.524s0.682-1.524 1.524-1.524z"></path>
</symbol>
<symbol id="icon-phone-call-2-1" viewBox="0 0 32 32">
<path fill="#000" style="fill: var(--color1, #000)" d="M25.29 19.823c-0.655-0.682-1.445-1.047-2.283-1.047-0.831 0-1.628 0.358-2.31 1.040l-2.134 2.127c-0.176-0.095-0.351-0.182-0.52-0.27-0.243-0.122-0.473-0.236-0.669-0.358-1.999-1.27-3.816-2.924-5.558-5.065-0.844-1.067-1.412-1.965-1.824-2.877 0.554-0.507 1.067-1.033 1.567-1.54 0.189-0.189 0.378-0.385 0.567-0.574 1.418-1.418 1.418-3.255 0-4.674l-1.844-1.844c-0.209-0.209-0.425-0.426-0.628-0.642-0.405-0.419-0.831-0.851-1.27-1.256-0.655-0.648-1.439-0.993-2.263-0.993s-1.621 0.344-2.296 0.993c-0.007 0.007-0.007 0.007-0.014 0.014l-2.296 2.317c-0.865 0.864-1.357 1.918-1.466 3.141-0.162 1.972 0.419 3.809 0.865 5.011 1.094 2.951 2.729 5.687 5.167 8.618 2.958 3.532 6.517 6.322 10.583 8.287 1.553 0.736 3.627 1.607 5.943 1.756 0.142 0.007 0.29 0.014 0.425 0.014 1.56 0 2.87-0.561 3.897-1.675 0.007-0.014 0.020-0.020 0.027-0.034 0.351-0.425 0.756-0.81 1.182-1.222 0.29-0.277 0.588-0.567 0.878-0.871 0.669-0.696 1.020-1.506 1.020-2.337 0-0.838-0.358-1.641-1.040-2.317l-3.708-3.721zM27.708 26.935c-0.007 0-0.007 0.007 0 0-0.263 0.284-0.534 0.54-0.824 0.824-0.439 0.419-0.885 0.858-1.303 1.351-0.682 0.729-1.486 1.074-2.539 1.074-0.101 0-0.209 0-0.311-0.007-2.006-0.128-3.87-0.912-5.268-1.58-3.823-1.851-7.179-4.478-9.969-7.807-2.303-2.776-3.843-5.342-4.863-8.098-0.628-1.682-0.858-2.992-0.756-4.228 0.068-0.79 0.371-1.445 0.932-2.006l2.303-2.303c0.331-0.311 0.682-0.48 1.027-0.48 0.425 0 0.77 0.257 0.986 0.473 0.007 0.007 0.014 0.013 0.020 0.020 0.412 0.385 0.804 0.783 1.216 1.209 0.209 0.216 0.425 0.432 0.642 0.655l1.844 1.844c0.716 0.716 0.716 1.378 0 2.094-0.196 0.196-0.385 0.392-0.581 0.581-0.567 0.581-1.108 1.121-1.695 1.648-0.013 0.014-0.027 0.020-0.034 0.034-0.581 0.581-0.473 1.148-0.351 1.533 0.007 0.020 0.014 0.040 0.020 0.061 0.479 1.162 1.155 2.256 2.181 3.559l0.007 0.007c1.864 2.296 3.829 4.086 5.997 5.457 0.277 0.176 0.561 0.317 0.831 0.453 0.243 0.122 0.473 0.236 0.669 0.358 0.027 0.014 0.054 0.034 0.081 0.047 0.23 0.115 0.446 0.169 0.669 0.169 0.561 0 0.912-0.351 1.027-0.466l2.31-2.31c0.23-0.23 0.594-0.507 1.020-0.507 0.419 0 0.763 0.263 0.973 0.493 0.007 0.007 0.007 0.007 0.014 0.013l3.721 3.721c0.696 0.689 0.696 1.398 0.007 2.114z"></path>
<path fill="#ddd0a4" style="fill: var(--color2, #ddd0a4)" d="M17.293 7.612c1.77 0.297 3.377 1.135 4.66 2.418s2.114 2.891 2.418 4.66c0.074 0.446 0.459 0.756 0.898 0.756 0.054 0 0.101-0.007 0.155-0.014 0.5-0.081 0.831-0.554 0.75-1.054-0.365-2.141-1.378-4.093-2.924-5.639s-3.498-2.56-5.639-2.924c-0.5-0.081-0.966 0.25-1.054 0.743s0.236 0.973 0.736 1.054z"></path>
<path fill="#ddd0a4" style="fill: var(--color2, #ddd0a4)" d="M31.963 14.116c-0.601-3.525-2.263-6.734-4.816-9.287s-5.761-4.214-9.287-4.815c-0.493-0.088-0.959 0.25-1.047 0.743-0.081 0.5 0.25 0.966 0.75 1.054 3.147 0.534 6.018 2.026 8.3 4.302 2.283 2.283 3.769 5.153 4.302 8.3 0.074 0.446 0.459 0.756 0.898 0.756 0.054 0 0.101-0.007 0.155-0.014 0.493-0.074 0.831-0.547 0.743-1.040z"></path>
</symbol>
</defs>
</svg>
