<svg aria-hidden="true" style="position: absolute; width: 0; height: 0; overflow: hidden;" version="1.1" xmlns="http://www.w3.org/2000/svg" xmlns:xlink="http://www.w3.org/1999/xlink">
<defs>
<symbol id="icon-hero_img" viewBox="0 0 43 32">
<path fill="#4a607a" style="fill: var(--color1, #4a607a)" d="M42.103 21.195c0 0.463-0.015 0.922-0.046 1.377-0.167 2.443-0.742 4.711-1.66 6.794l0.051-0.129c-0.199 0.463-0.348 0.78-0.505 1.092l0.058-0.128h-36.501c-0.372-0.725-0.739-1.599-1.043-2.502l-0.041-0.141c-0.14-0.395-0.299-0.941-0.435-1.496l-0.028-0.137c-0.351-1.415-0.553-3.040-0.553-4.711 0-0.007 0-0.013 0-0.020v0.001c-0.001-11.225 9.111-20.324 20.352-20.324 0.003 0 0.006 0 0.009 0 0.977 0 1.937 0.068 2.877 0.2l-0.108-0.012c0.213 0.029 0.425 0.062 0.638 0.097 0.233 0.039 0.465 0.082 0.695 0.127 3.030 0.639 5.699 1.87 7.998 3.571l-0.055-0.039c2.353 1.74 4.28 3.912 5.694 6.414l0.053 0.102c0.256 0.444 0.54 1.005 0.799 1.581l0.052 0.129c0.159 0.341 0.35 0.814 0.523 1.297l0.042 0.136c0.718 1.985 1.135 4.275 1.139 6.663v0.002c-0.002 0.021-0.002 0.039-0.002 0.058z"></path>
<path fill="#1a3554" style="fill: var(--color2, #1a3554)" d="M42.103 21.195c0 0.463-0.015 0.922-0.046 1.377-0.167 2.443-0.742 4.711-1.66 6.794l0.051-0.129c-0.199 0.463-0.348 0.78-0.505 1.092l0.058-0.128h-36.501c-0.372-0.725-0.739-1.599-1.043-2.502l-0.041-0.141 11.587-7.151 10.888 1.019 14.659-10.093c0.256 0.444 0.54 1.005 0.799 1.581l0.052 0.129c0.159 0.341 0.35 0.814 0.523 1.297l0.042 0.136c0.718 1.985 1.135 4.276 1.139 6.663v0.002c-0.001 0.019-0.001 0.037-0.001 0.056z"></path>
<path fill="#2c3149" style="fill: var(--color3, #2c3149)" d="M12.87 10.236c0 0 0 0 0 0 0.192 0 0.347-0.155 0.347-0.347v0c-0-0.192-0.156-0.347-0.347-0.347-0 0-0 0-0 0h0c-0 0-0 0-0 0-0.192 0-0.347 0.155-0.347 0.347v0c0 0.192 0.156 0.347 0.347 0.347 0 0 0 0 0 0v0z"></path>
<path fill="#4f6097" style="fill: var(--color4, #4f6097)" d="M33.785 7.953h-22.684c-1.042 0-1.887 0.844-1.887 1.885v11.569c0 1.041 0.845 1.885 1.887 1.885h22.684c1.042 0 1.887-0.844 1.887-1.885v-11.569c0-1.041-0.845-1.885-1.887-1.885z"></path>
<path fill="#303072" style="fill: var(--color5, #303072)" d="M33.062 7.273h-22.684c-1.042 0-1.888 0.844-1.888 1.885v11.569c0 1.041 0.845 1.885 1.888 1.885h22.684c1.042 0 1.888-0.844 1.888-1.885v-11.569c0-1.041-0.845-1.885-1.888-1.885z"></path>
<path fill="#fff" style="fill: var(--color6, #fff)" d="M10.437 10.222v9.547h22.705v-9.547h-22.705zM33.055 12.344h-2.948v-2.036h2.949l-0.002 2.036zM22.756 12.429h4.135v2.254h-4.134l-0.002-2.254zM22.671 14.682h-4.181v-2.254h4.182l-0.002 2.254zM26.976 12.429h3.045v2.254h-3.043l-0.002-2.254zM26.976 12.344v-2.036h3.045v2.036h-3.045zM26.891 12.344h-4.134v-2.036h4.135l-0.002 2.036zM22.671 12.344h-4.181v-2.036h4.182l-0.002 2.036zM18.403 12.344h-3.896v-2.036h3.898l-0.002 2.036zM18.403 12.429v2.254h-3.896v-2.254h3.896zM14.422 14.682h-3.9v-2.254h3.9v2.254zM14.422 14.767v2.689h-3.9v-2.689h3.9zM14.507 14.767h3.898v2.689h-3.898v-2.689zM18.49 14.767h4.182v2.689h-4.182v-2.689zM22.757 14.767h4.135v2.689h-4.135v-2.689zM26.978 14.767h3.045v2.689h-3.045v-2.689zM30.108 14.767h2.949v2.689h-2.949v-2.689zM30.108 14.682v-2.254h2.949v2.254h-2.949zM14.422 10.308v2.036h-3.9v-2.037l3.9 0.001zM10.522 19.685v-2.143h3.9v2.081h0.085v-2.081h3.898v2.081h0.085v-2.081h4.182v2.081h0.085v-2.081h4.135v2.081h0.085v-2.081h3.045v2.081h0.085v-2.081h2.949v2.143h-22.535z"></path>
<path fill="#ec685a" style="fill: var(--color7, #ec685a)" d="M10.376 19.637c-0.050-0.001-0.094-0.031-0.114-0.073l-0-0.001c-0.007-0.016-0.012-0.034-0.012-0.053 0-0.016 0.003-0.031 0.008-0.045l-0 0.001c0.44-1.1 0.957-2.047 1.57-2.923l-0.030 0.046c0.587-0.835 1.216-1.499 1.869-1.972 0.825-0.597 1.692-0.892 2.574-0.874 0.105 0 1.696 0.004 3.348 2.071 0.716 0.896 1.804 1.399 2.981 1.385 1.58-0.021 3.115-0.911 4.323-2.506 2.357-3.116 3.745-4.139 6.185-4.554 0.006-0.001 0.014-0.002 0.021-0.002 0.063 0 0.115 0.046 0.126 0.105l0 0.001c0.001 0.006 0.002 0.014 0.002 0.021 0 0.063-0.046 0.115-0.106 0.126l-0.001 0c-2.391 0.408-3.686 1.365-6.026 4.455-0.645 0.852-1.384 1.512-2.195 1.961-0.746 0.413-1.552 0.637-2.329 0.647-1.258 0.017-2.418-0.523-3.184-1.481-1.589-1.987-3.129-1.974-3.147-1.975h-0.006c-1.883-0.038-3.338 1.466-4.229 2.733-0.571 0.814-1.079 1.743-1.478 2.728l-0.034 0.094c-0.018 0.049-0.064 0.083-0.117 0.084h-0z"></path>
<path fill="#00132c" style="fill: var(--color8, #00132c)" d="M10.479 19.855c-0.046-0-0.086-0.025-0.109-0.061l-0-0.001c-0.011-0.019-0.018-0.041-0.018-0.065 0-0.022 0.006-0.043 0.015-0.061l-0 0.001c0.021-0.039 0.522-0.968 1.495-1.903 0.89-0.855 2.354-1.867 4.296-1.867h0.080c0.096 0 1.68 0 3.335 1.519 0.804 0.738 2.032 1.104 3.37 1.003 1.453-0.11 2.859-0.758 3.96-1.826 2.447-2.373 3.832-3.24 6.172-3.863 0.011-0.004 0.025-0.006 0.039-0.006 0.023 0 0.044 0.006 0.062 0.016l-0.001-0c0.040 0.022 0.066 0.064 0.066 0.112 0 0.043-0.021 0.080-0.053 0.103l-0 0c-0.013 0.010-0.029 0.017-0.046 0.021l-0.001 0c-2.318 0.618-3.621 1.434-6.061 3.799-1.144 1.109-2.606 1.784-4.118 1.897-1.409 0.106-2.707-0.283-3.563-1.069-1.592-1.462-3.143-1.453-3.16-1.452h-0.004c-1.893-0.028-3.323 0.958-4.19 1.789-0.558 0.534-1.040 1.14-1.432 1.806l-0.021 0.039c-0.022 0.041-0.064 0.069-0.113 0.069-0 0-0 0-0 0v0z"></path>
<path fill="#ec685a" style="fill: var(--color7, #ec685a)" d="M16.428 24.176l0.005-0.011c-0.002 0.004-0.003 0.008-0.005 0.012l0-0.001zM16.434 24.165c0.009-0.025 0.020-0.052 0.032-0.080-0.016 0.038-0.027 0.065-0.032 0.080z"></path>
<path fill="#b8a375" style="fill: var(--color9, #b8a375)" d="M7.785 28.975v0.892c-0.387-0.054-0.737-0.158-1.062-0.307l0.024 0.010v-0.595h1.039zM10.643 28.975v0.643c-0.298 0.142-0.653 0.219-1.039 0.258v-0.901h1.039z"></path>
<path fill="#ddd0a4" style="fill: var(--color10, #ddd0a4)" d="M12.463 26.959v0.49c-0 0.212-0.084 0.404-0.22 0.545l0-0c-0.136 0.142-0.325 0.233-0.534 0.242l-0.002 0c-0.418 0.874-1.466 1.509-2.714 1.571-1.633-0.076-2.927-1.13-2.927-2.421 0-0.18 0.026-0.359 0.076-0.532-0.4-0.113-0.601-0.353-0.701-0.582 0.149 0.055 0.322 0.092 0.501 0.106l0.007 0c0.012-0.021 0.024-0.042 0.037-0.060 0.119 0.030 0.241 0.051 0.363 0.060 0.468-0.791 1.464-1.354 2.639-1.41 0.226 0.011 0.45 0.042 0.671 0.093 0.016-0.023 0.035-0.044 0.056-0.063 0.238-0.24 0.871-0.454 0.871-0.454v0.864c0.655 0.361 1.122 0.912 1.269 1.551h0.609z"></path>
<path fill="#b8a375" style="fill: var(--color9, #b8a375)" d="M10.584 24.543s-0.561 0.264-0.674 0.578c0 0-0.326-0.15-0.464-0.163s0.682-0.629 1.138-0.414zM8.991 29.807c-0.068 0.004-0.138 0.006-0.208 0.006-1.722 0-3.118-1.086-3.118-2.425 0-0.181 0.026-0.361 0.077-0.534-0.877-0.246-0.794-1.112-0.794-1.112 0.045 0.281 0.255 0.44 0.495 0.53 0.1 0.229 0.301 0.47 0.701 0.582-0.048 0.16-0.077 0.344-0.077 0.534v0c0 1.289 1.294 2.343 2.925 2.419zM8.991 24.968c-1.175 0.056-2.172 0.618-2.639 1.41-0.135-0.011-0.258-0.032-0.378-0.064l0.015 0.003c0.51-0.802 1.57-1.354 2.798-1.354 0.066 0 0.135 0.002 0.204 0.005z"></path>
<path fill="#2c3149" style="fill: var(--color3, #2c3149)" d="M10.414 27.114c0 0 0 0 0 0 0.193 0 0.349-0.156 0.349-0.349v0c-0-0.193-0.156-0.349-0.349-0.349-0 0-0 0-0 0v0c-0 0-0 0-0 0-0.193 0-0.349 0.156-0.349 0.349v0c0 0.193 0.156 0.349 0.349 0.349 0 0 0 0 0 0v0z"></path>
<path fill="#b8a375" style="fill: var(--color9, #b8a375)" d="M9.904 25.897h-2.178c-0.001 0-0.003 0-0.004 0-0.023 0-0.043-0.014-0.052-0.033l-0-0c-0.003-0.007-0.005-0.015-0.005-0.023 0-0.025 0.016-0.046 0.038-0.053l0-0c0.005-0.002 0.012-0.003 0.018-0.003 0.002 0 0.004 0 0.005 0l-0-0h2.178c0.002-0 0.004-0 0.005-0 0.023 0 0.043 0.014 0.051 0.033l0 0c0.003 0.007 0.005 0.014 0.005 0.023 0 0.031-0.025 0.057-0.057 0.057-0.002 0-0.003-0-0.005-0h0z"></path>
<path fill="#efb2a0" style="fill: var(--color11, #efb2a0)" d="M8.76 25.552c0.718 0 1.3-0.581 1.3-1.298s-0.582-1.298-1.3-1.298c-0.718 0-1.3 0.581-1.3 1.298s0.582 1.298 1.3 1.298z"></path>
<path fill="#ddd0a4" style="fill: var(--color10, #ddd0a4)" d="M7.785 29.866v0.276h-1.039v-0.572c0.302 0.139 0.652 0.243 1.019 0.294l0.020 0.002zM10.643 29.618v0.524h-1.039v-0.265c0.387-0.040 0.74-0.117 1.039-0.259z"></path>
<path fill="#fde5cf" style="fill: var(--color12, #fde5cf)" d="M8.76 24.975c0.399 0 0.723-0.323 0.723-0.722s-0.324-0.722-0.723-0.722-0.723 0.323-0.723 0.722 0.324 0.722 0.723 0.722z"></path>
<path fill="#ddd0a4" style="fill: var(--color10, #ddd0a4)" d="M29.215 21.289c-0.004 0.062-0.008 0.119-0.011 0.171-0.006 0.084-0.048 0.157-0.111 0.203l-0.001 0.001c-0.046 0.035-0.105 0.055-0.168 0.055-0.022 0-0.043-0.003-0.064-0.007l0.002 0-0.055 0.386-0.035 0.255c-0.064 0.438-0.282 0.816-0.595 1.085l-0.002 0.002c-0.314 0.27-0.725 0.435-1.175 0.435-0.071 0-0.141-0.004-0.209-0.012l0.008 0.001c-0.080-0.009-0.15-0.022-0.219-0.039l0.012 0.003-0.463 3.294-0.53 3.758h-7.499l-0.651-3.703-0.070-0.394-0.533-3.027c-0.089 0.028-0.194 0.050-0.302 0.062l-0.008 0.001c-0.797 0.089-1.85-0.727-2.267-1.548-0.015 0.003-0.032 0.005-0.049 0.005-0.055 0-0.105-0.018-0.145-0.049l0.001 0c-0.027-0.021-0.049-0.046-0.065-0.076l-0.001-0.001c-0.015-0.028-0.025-0.061-0.026-0.096l-0-0-0.128-3.037-0.005-0.055c-0.144-1.32 0.899-2.426 2.047-2.854l0.239-0.086c0.098-0.046 0.231-0.102 0.367-0.151l0.037-0.012 2.082-0.738c0.53 0.715 1.696 1.21 3.049 1.21 0.007 0 0.016 0 0.025 0 0.42 0 0.828-0.050 1.219-0.144l-0.035 0.007c0.069-0.016 0.136-0.033 0.201-0.053 0.707-0.202 1.279-0.553 1.62-0.988l1.989 0.704c0.208 0.075 0.373 0.146 0.535 0.225l-0.032-0.014 0.24 0.087c1.079 0.402 1.876 1.501 1.829 2.628 0.040 0.786-0.012 1.88-0.050 2.507z"></path>
<path fill="#f7ad83" style="fill: var(--color13, #f7ad83)" d="M24.702 15.151c-0.54 0.704-1.688 1.189-3.020 1.189-1.35 0-2.513-0.501-3.042-1.222l1.435-0.515v-2.582h3.151v2.601l1.476 0.529z"></path>
<path fill="#ec685a" style="fill: var(--color7, #ec685a)" d="M23.248 12.345v0.8c-0.344 0.376-0.864 0.798-1.46 0.798-0.751 0-1.381-0.53-1.691-0.849v-0.699l1.1-0.049h2.051z"></path>
<path fill="#f7ad83" style="fill: var(--color13, #f7ad83)" d="M24.065 9.065c0.009 0.061 0.017 0.122 0.023 0.183v0.005c0.044 0.382 0.050 0.767 0.018 1.15v0.004c-0.075 0.887-0.364 1.686-0.864 2.216-0.314 0.34-0.739 0.573-1.217 0.643l-0.011 0.001c-1.318 0.189-2.31-0.79-2.823-2.16-0.122-0.313-0.225-0.682-0.292-1.065l-0.005-0.036c-0.007-0.031-0.018-0.097-0.027-0.164l-0.004-0.031c-0.285-1.984-0.386-3.431 2.109-3.789 0.425-0.061 0.814 0.248 1.238 0.187 0.971-0.139 1.58 1.359 1.82 2.651 0 0.006 0.002 0.011 0.003 0.016 0.012 0.062 0.023 0.125 0.032 0.189z"></path>
<path fill="#fde5cf" style="fill: var(--color12, #fde5cf)" d="M23.435 8.963l-1.553-0.262c-0.032-0.005-0.058-0.029-0.065-0.060l-0-0.001c-0.001-0.005-0.002-0.011-0.002-0.018 0-0.027 0.013-0.051 0.034-0.065l0-0c0.268-0.185 0.893-0.46 1.657 0.264 0.014 0.015 0.022 0.035 0.022 0.057 0 0.014-0.003 0.027-0.009 0.038l0-0.001c-0.008 0.015-0.020 0.028-0.035 0.036s-0.032 0.012-0.049 0.010z"></path>
<path fill="#1a1a1a" style="fill: var(--color14, #1a1a1a)" d="M20.494 10.218c0 0 0 0 0 0 0.12 0 0.217-0.097 0.217-0.217v0c-0-0.12-0.097-0.217-0.217-0.217-0 0-0 0-0 0v0c-0 0-0 0-0 0-0.12 0-0.217 0.097-0.217 0.217v0c0 0.12 0.097 0.217 0.217 0.217 0 0 0 0 0 0v0zM22.843 9.881c0 0 0 0 0 0 0.12 0 0.217-0.097 0.217-0.217v0c-0-0.12-0.097-0.217-0.217-0.217-0 0-0 0-0 0v0c-0 0-0 0-0 0-0.12 0-0.217 0.097-0.217 0.217v0c0 0.12 0.097 0.217 0.217 0.217 0 0 0 0 0 0v0zM21.508 11.676c-0.003 0-0.007 0-0.011 0-0.082 0-0.163-0.006-0.242-0.018l0.009 0.001c-0.012-0.002-0.021-0.008-0.028-0.018l-0-0c-0.005-0.007-0.008-0.015-0.008-0.025s0.003-0.017 0.007-0.023l-0 0c0.008-0.012 0.021-0.020 0.036-0.020 0.003 0 0.005 0 0.008 0.001l-0-0c0.009 0 0.875 0.147 1.213-0.467 0.008-0.012 0.021-0.020 0.036-0.020 0.023 0 0.043 0.019 0.043 0.043 0 0.007-0.002 0.014-0.005 0.019l0-0c-0.249 0.454-0.755 0.528-1.058 0.528zM21.76 11.944c-0.010-0-0.018-0.007-0.021-0.016l-0-0c-0-0.001-0.001-0.003-0.001-0.005 0-0.004 0.001-0.008 0.003-0.011l-0 0c0.003-0.005 0.008-0.008 0.013-0.009l0-0 0.521-0.119c0.002-0 0.003-0.001 0.005-0.001 0.010 0 0.018 0.007 0.020 0.016l0 0c0 0.001 0.001 0.003 0.001 0.005 0 0.010-0.007 0.018-0.016 0.021l-0 0-0.521 0.12-0.005 0zM21.76 10.861c-0.002 0-0.004 0-0.006 0-0.055 0-0.107-0.017-0.149-0.045l0.001 0.001c-0.050-0.036-0.085-0.092-0.093-0.156l-0-0.001-0.151-1.049c-0-0.002-0-0.004-0-0.006 0-0.024 0.019-0.043 0.043-0.043 0.021 0 0.039 0.016 0.042 0.037l0 0 0.151 1.049c0.004 0.041 0.025 0.077 0.057 0.1l0 0c0.032 0.019 0.070 0.030 0.111 0.030 0.021 0 0.041-0.003 0.060-0.008l-0.002 0c0.049-0.007 0.091-0.031 0.122-0.065l0-0c0.008-0.012 0.021-0.020 0.036-0.020 0.023 0 0.042 0.019 0.042 0.042 0 0.008-0.002 0.015-0.006 0.022l0-0c-0.043 0.054-0.105 0.092-0.175 0.103l-0.002 0c-0.025 0.006-0.053 0.009-0.082 0.009v0z"></path>
<path fill="#fde5cf" style="fill: var(--color12, #fde5cf)" d="M19.371 9.559l1.531-0.377c0.035-0.009 0.061-0.040 0.061-0.077 0-0.029-0.015-0.054-0.039-0.068l-0-0c-0.281-0.165-0.925-0.392-1.632 0.386-0.011 0.014-0.018 0.032-0.018 0.052 0 0.047 0.038 0.085 0.085 0.085 0.004 0 0.008-0 0.012-0.001l-0 0z"></path>
<path fill="#ec685a" style="fill: var(--color7, #ec685a)" d="M19.198 11.106c-0.038 0.035-0.079 0.064-0.125 0.088-0.242 0.133-0.7-0.046-0.847-0.408s-0.059-0.739 0.197-0.843c0.137-0.056 0.318-0.030 0.478 0.062 0.064 0.375 0.163 0.744 0.296 1.101z"></path>
<path fill="#1a1a1a" style="fill: var(--color14, #1a1a1a)" d="M18.633 10.946c-0.161-0.228 0.101-0.488 0.166-0.547-0.036-0.060-0.095-0.104-0.165-0.119l-0.002-0c-0.138-0.025-0.277 0.085-0.278 0.085l-0.027-0.033c0.006-0.005 0.155-0.122 0.312-0.095 0.089 0.019 0.163 0.076 0.204 0.153l0.001 0.002 0.009 0.016-0.014 0.011c-0.003 0.003-0.332 0.277-0.172 0.503l-0.035 0.025z"></path>
<path fill="#ec685a" style="fill: var(--color7, #ec685a)" d="M24.953 9.821c-0.039 0.389-0.428 0.69-0.698 0.63-0.054-0.012-0.101-0.028-0.146-0.050l0.004 0.002c0-0.003 0-0.006 0-0.010 0.014-0.163 0.020-0.328 0.019-0.496v-0.127c-0.005-0.175-0.016-0.34-0.034-0.502l0.002 0.027c0-0.014-0.003-0.029-0.005-0.042 0.019-0.019 0.039-0.037 0.060-0.054 0.082-0.069 0.184-0.116 0.298-0.13l0.003-0c0.024-0.002 0.048-0.002 0.072 0 0.274 0.028 0.465 0.365 0.426 0.753z"></path>
<path fill="#1a1a1a" style="fill: var(--color14, #1a1a1a)" d="M24.587 10.104c-0.001 0-0.002 0-0.003 0s-0.002-0-0.004-0l0 0c-0.008-0.003-0.014-0.011-0.014-0.020 0-0.002 0-0.005 0.001-0.007l-0 0c0.089-0.262-0.303-0.433-0.307-0.434l-0.017-0.007 0.005-0.017c0.019-0.090 0.075-0.163 0.152-0.205l0.002-0.001c0.143-0.071 0.318 0 0.326 0.003 0.003 0.001 0.005 0.003 0.007 0.005v0c0.004 0.004 0.006 0.009 0.006 0.015 0 0 0 0 0 0v-0c0 0.003-0.001 0.006-0.002 0.008-0.002 0.005-0.006 0.009-0.012 0.011l-0 0c-0.002 0.001-0.005 0.002-0.008 0.002s-0.006-0.001-0.008-0.002l0 0s-0.165-0.067-0.291-0.004c-0.063 0.034-0.109 0.091-0.127 0.159l-0 0.002c0.080 0.039 0.404 0.215 0.313 0.479-0.003 0.007-0.010 0.013-0.018 0.013h-0z"></path>
<path fill="#ec685a" style="fill: var(--color7, #ec685a)" d="M20.087 11.358c0 0 0 0 0 0 0.229 0 0.415-0.186 0.415-0.415v0c-0-0.229-0.186-0.415-0.415-0.415-0 0-0 0-0 0h0c-0 0-0 0-0 0-0.229 0-0.415 0.186-0.415 0.415v0c0 0.229 0.186 0.415 0.415 0.415 0 0 0 0 0 0h-0zM23.393 10.884c0 0 0 0 0 0 0.229 0 0.415-0.186 0.415-0.415v0c-0-0.229-0.186-0.415-0.415-0.415-0 0-0 0-0 0h0c-0 0-0 0-0 0-0.229 0-0.415 0.186-0.415 0.415v0c0 0.229 0.186 0.415 0.415 0.415 0 0 0 0 0 0h-0z"></path>
<path fill="#fde5cf" style="fill: var(--color12, #fde5cf)" d="M24.1 9.384s-0.526-0.722-0.556-1.396c-0.030-0.674-0.319-1.015-0.603-1.086-0.137-0.034-0.353 0.062-0.593 0.21-0.361 0.223-0.774 0.564-1.046 0.757-0.495 0.352-1.651 0.538-2.244 0.074-0.369-0.288-0.17 1.996-0.065 2.378 0 0-0.276-0.715-0.712-0.983s-0.73-0.704-0.404-1.313-0.216-1.042-0.23-1.602c-0.014-0.56 0.812-1.14 1.956-1.007s2.039-0.54 2.37-0.769c0.331-0.229 1-0.061 1.1 0.866s0.63 0.161 1.001 0.517c0.282 0.271-0.043 0.403 0.218 0.944s0.41 0.024 0.521 0.685c0.084 0.501-0.822 0.494-0.713 1.726z"></path>
<path fill="#1a1a1a" style="fill: var(--color14, #1a1a1a)" d="M20.304 11.255c-0.241-0.001-0.46-0.090-0.628-0.236l0.001 0.001c-0.169-0.147-0.286-0.351-0.32-0.582l-0.001-0.005c-0.006-0.041-0.010-0.088-0.010-0.136 0-0.157 0.038-0.305 0.104-0.435l-0.003 0.005c0.090-0.176 0.226-0.317 0.394-0.409l0.005-0.002c0.133-0.074 0.291-0.117 0.459-0.117 0.241 0 0.462 0.089 0.631 0.236l-0.001-0.001c0.203 0.176 0.331 0.435 0.331 0.723 0 0.121-0.022 0.237-0.063 0.343l0.002-0.007c-0.071 0.187-0.194 0.341-0.35 0.45l-0.003 0.002c-0.152 0.107-0.342 0.17-0.546 0.17-0.001 0-0.001 0-0.002 0h0zM20.306 9.379c-0 0-0 0-0.001 0-0.294 0-0.555 0.138-0.723 0.352l-0.002 0.002c-0.12 0.153-0.193 0.349-0.193 0.562 0 0.282 0.127 0.534 0.328 0.702l0.001 0.001c0.158 0.133 0.364 0.213 0.589 0.213 0.271 0 0.514-0.117 0.682-0.303l0.001-0.001c0.146-0.162 0.235-0.377 0.235-0.613 0-0.259-0.107-0.493-0.28-0.659l-0-0c-0.165-0.159-0.39-0.257-0.637-0.257v0zM23.001 10.868c-0.259-0-0.494-0.103-0.667-0.27l0 0c-0.173-0.167-0.283-0.398-0.293-0.655l-0-0.002c-0-0.010-0.001-0.022-0.001-0.034 0-0.247 0.093-0.472 0.247-0.643l-0.001 0.001c0.177-0.196 0.431-0.318 0.714-0.318 0.235 0 0.451 0.084 0.618 0.225l-0.001-0.001c0.211 0.177 0.344 0.441 0.344 0.736 0 0.223-0.076 0.428-0.204 0.591l0.002-0.002c-0.177 0.227-0.451 0.371-0.758 0.371-0 0-0.001 0-0.001 0h0zM23.003 8.992c-0.001 0-0.002 0-0.003 0-0.397 0-0.734 0.251-0.863 0.603l-0.002 0.006c-0.034 0.091-0.053 0.197-0.053 0.307 0 0.155 0.038 0.301 0.106 0.429l-0.002-0.005c0.157 0.295 0.462 0.493 0.813 0.493 0.046 0 0.092-0.003 0.136-0.010l-0.005 0.001c0.237-0.035 0.441-0.156 0.582-0.33l0.001-0.002c0.127-0.156 0.204-0.357 0.204-0.576 0-0.264-0.112-0.502-0.29-0.669l-0.001-0c-0.163-0.153-0.382-0.246-0.624-0.247h-0z"></path>
<path fill="#1a1a1a" style="fill: var(--color14, #1a1a1a)" d="M21.234 10.184c-0 0-0 0-0 0-0.004 0-0.008-0.001-0.011-0.003l0 0c-0.006-0.004-0.010-0.010-0.010-0.018 0-0.005 0.002-0.010 0.005-0.014l-0 0c0.003-0.005 0.366-0.434 0.865-0.125 0.007 0.004 0.011 0.011 0.011 0.019 0 0.012-0.010 0.021-0.021 0.021-0.005 0-0.009-0.001-0.012-0.004l0 0c-0.468-0.29-0.808 0.112-0.808 0.116-0.004 0.005-0.010 0.008-0.017 0.008-0.001 0-0.001-0-0.002-0h0z"></path>
<path fill="#fcf4ed" style="fill: var(--color15, #fcf4ed)" d="M18.705 6.926c0.139 0.032 0.28 0.052 0.422 0.060 0.14 0.008 0.279 0.004 0.418-0.013 0.144-0.018 0.274-0.052 0.397-0.101l-0.011 0.004c0.122-0.049 0.227-0.112 0.32-0.188l-0.002 0.002c0.045-0.039 0.086-0.081 0.123-0.126l0.001-0.002c0.019-0.022 0.037-0.045 0.054-0.069l0.025-0.036 0.037-0.048c0.054-0.072 0.106-0.136 0.162-0.196l-0.001 0.002c0.030-0.031 0.057-0.064 0.090-0.095l0.1-0.091c0.151-0.131 0.333-0.23 0.535-0.284l0.009-0.002c0.025-0.007 0.055-0.013 0.085-0.016l0.003-0c0.031-0.004 0.060-0.009 0.092-0.010s0.064 0 0.096 0c0.033 0.001 0.066 0.005 0.098 0.009 0.068 0.009 0.134 0.026 0.199 0.050 0.034 0.012 0.067 0.026 0.1 0.042 0.017 0.010 0.035 0.020 0.052 0.030l0.030 0.020 0.015 0.011c0.009 0.007 0.018 0.014 0.027 0.022 0.093 0.085 0.151 0.206 0.151 0.341 0 0.183-0.107 0.342-0.262 0.416l-0.003 0.001c-0.058 0.028-0.125 0.044-0.197 0.044-0.056 0-0.11-0.010-0.159-0.028l0.003 0.001c-0.060-0.022-0.111-0.053-0.155-0.093l0 0c0.005 0.005 0.010 0.009 0.016 0.013l0 0 0.004 0.002 0.007 0.003h0.006s0.003-0.004 0-0.006c-0.002-0.006-0.006-0.012-0.011-0.016l-0-0c-0.004-0.002-0.006-0.006-0.011-0.008s-0.010-0.004-0.015-0.007l0 0c-0.004-0-0.008-0-0.012-0-0.002 0-0.003 0-0.005 0h0c-0.006-0.002-0.013-0.004-0.020-0.004-0 0-0.001 0-0.001 0h0c-0.095 0-0.184 0.025-0.261 0.069l0.003-0.001-0.076 0.042c-0.026 0.014-0.050 0.034-0.076 0.051-0.057 0.040-0.107 0.078-0.154 0.119l0.002-0.002-0.039 0.032-0.051 0.045c-0.032 0.029-0.066 0.057-0.102 0.083l-0.003 0.002c-0.202 0.151-0.446 0.256-0.711 0.296l-0.009 0.001c-0.089 0.014-0.191 0.022-0.295 0.022-0.069 0-0.137-0.003-0.203-0.010l0.008 0.001c-0.172-0.017-0.329-0.048-0.48-0.093l0.018 0.005c-0.167-0.048-0.311-0.103-0.448-0.171l0.015 0.007c-0.021-0.012-0.034-0.034-0.034-0.060 0-0.008 0.001-0.016 0.004-0.024l-0 0c0.010-0.027 0.035-0.046 0.065-0.046 0.004 0 0.008 0 0.012 0.001l-0-0 0.004-0.003z"></path>
<path fill="#ec685a" style="fill: var(--color7, #ec685a)" d="M22.348 7.112c-0.497 0.447-1.279 1.345-2.078 1.381-0.953 0.042-1.213-0.55-1.213-0.55 0.595 0.465 1.749 0.279 2.244-0.074 0.272-0.193 0.685-0.534 1.046-0.757z"></path>
<path fill="#406468" style="fill: var(--color16, #406468)" d="M25.065 24.036v0z"></path>
<path fill="#b8a375" style="fill: var(--color9, #b8a375)" opacity="0.48999999999999994" d="M25.942 20.019l-0.072 1.414 2.927 0.728 0.054-0.39c0.018 0.004 0.040 0.007 0.061 0.007 0.148 0 0.269-0.115 0.279-0.261l0-0.001c0.003-0.053 0.007-0.11 0.011-0.173-2.92-0.204-3.26-1.325-3.26-1.325zM26.111 26.921c-0.128-0.011-0.227-0.022-0.326-0.035l0.038 0.004c-0.258-0.031-0.584-0.081-0.989-0.159l-0.089-0.017-0.104-0.022c-0.341-0.066-0.497-0.1-0.652-0.136l0.191 0.037-0.052-0.012c-0.291-0.060-0.373-0.079-0.455-0.099l0.21 0.043-0.068-0.016c-0.090-0.022-0.184-0.045-0.28-0.068l-0.072-0.018c-0.373-0.086-0.5-0.12-0.626-0.154l0.249 0.057-0.079-0.021-0.16-0.042-0.156-0.042c-0.55-0.141-0.767-0.204-0.984-0.269l0.333 0.085-0.149-0.042c-0.714-0.198-1.007-0.289-1.299-0.382l0.419 0.116-0.103-0.033c-1.13-0.343-1.771-0.56-2.407-0.786l0.48 0.149-0.12-0.042c-0.245 0.521-0.428 0.878-0.619 1.23l0.070-0.142c-0.195 0.365-0.53 0.63-0.915 0.785l0.068 0.399c0.322-0.094 1.21-0.472 1.543-1.836 0 0 5.493 1.716 7.114 1.781l0.043-0.305h-0.011l-0.046-0.005zM17.173 22.845l0.714-1.409c-0.688-0.653-0.749-1.217-0.749-1.217s-0.331 1.005-1.54 1.503c0.281-0.070 0.603-0.111 0.935-0.112h0.199c0.026 0 0.051 0 0.077 0.003 0.056 0.002 0.113 0.006 0.17 0.011l0.065 0.005 0.081 0.008 0.082 0.009-0.003 0.113-0.031 1.086zM25.003 24.025l0.304 0.042c0.015 0.002 0.033 0.004 0.050 0.004 0.185 0 0.336-0.143 0.349-0.324l0-0.001 0.038-0.544c-0.638 0.119-1.85 0.135-1.85 0.135-1.744-0.116-3.038-0.396-3.998-0.744-0.008 0.021-0.016 0.042-0.025 0.063-0.015 0.042-0.031 0.081-0.047 0.121-0.063 0.16-0.125 0.316-0.187 0.467l0.060 0.009 5.305 0.771z"></path>
<path fill="#efcec5" style="fill: var(--color17, #efcec5)" d="M23.53 16.695l0.005 0.004c-0.002 0.010-0.006 0.018-0.012 0.026l0-0-0.081 0.103 0.155 0.122-0.021 0.027c-0.048 0.060-0.145 0.062-0.219 0.004l-0.032-0.026 0.205-0.26z"></path>
<path fill="#ec685a" style="fill: var(--color7, #ec685a)" d="M19.522 13.739l3.643 2.867-0.117 0.148-3.682-2.898c0.063-0.027 0.115-0.067 0.155-0.117l0.001-0.001z"></path>
<path fill="#fdefe7" style="fill: var(--color18, #fdefe7)" d="M19.022 13.348l0.499 0.391c-0.041 0.051-0.093 0.091-0.154 0.117l-0.003 0.001-0.071-0.056-0.322-0.397 0.050-0.056z"></path>
<path fill="#2c3149" style="fill: var(--color3, #2c3149)" d="M18.753 13.136l0.269 0.212-0.022 0.026-0.028 0.032-0.219-0.271z"></path>
<path fill="#9a3836" style="fill: var(--color19, #9a3836)" d="M19.6 13.578l3.674 2.892-0.109 0.138-3.643-2.869 0.003-0.003c0.035-0.044 0.061-0.098 0.075-0.156l0.001-0.003z"></path>
<path fill="#f7ad83" style="fill: var(--color13, #f7ad83)" d="M19.521 13.516l0.079 0.062c-0.014 0.061-0.040 0.115-0.076 0.161l0.001-0.001-0.002 0.003-0.499-0.393 0.013-0.016c0.012-0.015 0.024-0.031 0.035-0.047l0.45 0.231z"></path>
<path fill="#030205" style="fill: var(--color20, #030205)" d="M19.070 13.285c-0.011 0.016-0.023 0.031-0.035 0.047l-0.013 0.016-0.269-0.212-0.018-0.022 0.336 0.172z"></path>
<path fill="#2c3149" style="fill: var(--color3, #2c3149)" d="M23.53 16.695l0.005 0.004c-0.002 0.010-0.006 0.018-0.012 0.026l0-0-0.17 0.212c-0.007 0.008-0.015 0.015-0.026 0.019l-0 0c-0.009 0.003-0.020 0.005-0.032 0.005-0.023 0-0.045-0.008-0.062-0.023l0 0-0.173-0.136c-0.018-0.012-0.032-0.031-0.037-0.052l-0-0.001c-0.001-0.005-0.002-0.012-0.002-0.018 0-0.017 0.005-0.032 0.013-0.046l-0 0 0.088-0.111 0.308 0.242 0.099-0.123z"></path>
<path fill="#e2beb5" style="fill: var(--color21, #e2beb5)" d="M23.536 16.699l0.027 0.021c0.074 0.058 0.095 0.153 0.047 0.212l-0.012 0.016-0.155-0.122 0.081-0.103c0.005-0.007 0.009-0.015 0.012-0.024l0-0z"></path>
<path fill="#191e30" style="fill: var(--color22, #191e30)" d="M23.205 16.474l-0.081 0.103 0.318 0.251 0.081-0.103c0.006-0.007 0.010-0.016 0.012-0.025l0-0c0.001-0.005 0.001-0.010 0.001-0.015 0-0.031-0.015-0.059-0.039-0.076l-0-0-0.174-0.136c-0.015-0.014-0.036-0.023-0.058-0.023-0.024 0-0.045 0.010-0.060 0.025v0z"></path>
<path fill="#f7ad83" style="fill: var(--color13, #f7ad83)" d="M28.852 21.771s-0.008 2.837-0.919 4.306c-0.283 0.456-0.651 0.779-1.133 0.846-0.049 0.007-0.099 0.011-0.148 0.012-0.042 0.004-0.091 0.006-0.14 0.006-0.024 0-0.048-0-0.072-0.001l-0.063-0.002c-0.062 0-0.134-0.006-0.219-0.013l-0.046-0.004c-0.129-0.011-0.228-0.022-0.326-0.035l0.038 0.004c-0.258-0.031-0.584-0.081-0.989-0.159l-0.089-0.017-0.105-0.022c-0.341-0.066-0.497-0.1-0.652-0.136l0.191 0.037-0.052-0.012c-0.291-0.060-0.373-0.079-0.455-0.099l0.21 0.043-0.068-0.016c-0.090-0.022-0.184-0.045-0.28-0.068l-0.072-0.018c-0.373-0.086-0.5-0.12-0.626-0.154l0.249 0.057-0.079-0.021-0.16-0.042-0.156-0.042c-0.542-0.14-0.76-0.203-0.977-0.267l0.326 0.083-0.149-0.042c-0.714-0.198-1.007-0.289-1.299-0.382l0.419 0.116-0.103-0.033c-1.13-0.343-1.771-0.56-2.407-0.786l0.48 0.149-0.12-0.042-0.017-0.006c-0.123-0.042-0.249-0.085-0.376-0.132l-0.268-0.095 0.324-0.92 0.17-0.478 0.093-0.262 0.542 0.079 0.311 0.042 0.060 0.009 5.609 0.811c0.015 0.002 0.033 0.004 0.051 0.004 0.185 0 0.336-0.143 0.349-0.324l0-0.001 0.038-0.544 0.008-0.113 0.117-1.656s0.651-0.038 1.348-0.016c0.706 0.026 1.463 0.11 1.633 0.358z"></path>
<path fill="#ec685a" style="fill: var(--color7, #ec685a)" d="M27.932 26.077c-0.283 0.456-0.651 0.779-1.133 0.846-0.049 0.007-0.099 0.011-0.148 0.012-0.042 0.004-0.091 0.006-0.14 0.006-0.024 0-0.048-0-0.072-0.001l-0.063-0.002c-0.062 0-0.134-0.006-0.219-0.013l-0.046-0.004c-0.129-0.011-0.228-0.022-0.326-0.035l0.038 0.004c-0.258-0.031-0.584-0.081-0.989-0.159l-0.089-0.017-0.104-0.022c-0.341-0.066-0.497-0.1-0.652-0.136l0.191 0.037-0.052-0.012c-0.291-0.060-0.373-0.079-0.455-0.099l0.21 0.043-0.068-0.016c-0.090-0.022-0.184-0.045-0.28-0.068l-0.072-0.018c-0.373-0.086-0.5-0.12-0.626-0.154l0.249 0.057-0.079-0.021-0.16-0.042-0.156-0.042c-0.55-0.141-0.767-0.204-0.984-0.269l0.333 0.085-0.149-0.042c-0.714-0.198-1.007-0.289-1.299-0.382l0.419 0.116-0.103-0.033c-1.13-0.343-1.771-0.56-2.407-0.786l0.48 0.149-0.12-0.042-0.017-0.006c-0.123-0.042-0.249-0.085-0.376-0.132l-0.268-0.095 0.324-0.92 0.53-0.436 0.17-0.139 0.105-0.085 0.311 0.042 0.060 0.009c-0.017 0.042-0.054 0.134-0.095 0.255l-0.009 0.028c-0.076 0.209-0.131 0.452-0.154 0.705l-0.001 0.012c-0.015 0.265 0.042 0.498 0.255 0.575 0.437 0.164 4.364 1.456 6.703 1.548 0.698 0.028 1.253-0.052 1.533-0.3zM27.22 21.418c-0.461 0.154-0.677 0.861-0.831 1.768-0.062 0.366-0.25 0.581-0.453 0.706-0.044 0.027-0.089 0.050-0.136 0.071-0.1 0.045-0.215 0.079-0.337 0.095l-0.007 0.001c0.139-0.042 0.24-0.163 0.25-0.31l0-0.001 0.038-0.544 0.008-0.113 0.117-1.656s0.651-0.038 1.348-0.016l0.002-0.001z"></path>
<path fill="#f7ad83" style="fill: var(--color13, #f7ad83)" d="M23.077 15.77c-0.020 0.073-0.046 0.144-0.078 0.212-0.383 0.854-1.646 2.032-1.646 2.032-0.36 1.399-0.754 2.654-1.151 3.758-0.143 0.424-0.195 0.563-0.248 0.701l0.094-0.282c-0.021 0.056-0.043 0.11-0.062 0.166-0.031 0.081-0.060 0.16-0.091 0.239-0.009 0.021-0.016 0.042-0.025 0.063-0.015 0.042-0.031 0.081-0.047 0.121-0.148 0.399-0.211 0.553-0.275 0.707l0.088-0.24c-0.034 0.085-0.069 0.17-0.104 0.255-0.004 0.009-0.008 0.018-0.011 0.027-0.163 0.407-0.261 0.629-0.361 0.849l0.071-0.176c-0.128 0.29-0.255 0.562-0.374 0.816-0.245 0.521-0.428 0.878-0.619 1.23l0.070-0.142c-0.277 0.519-0.837 0.836-1.418 0.922-0.093 0.015-0.199 0.024-0.308 0.024-0.237 0-0.464-0.042-0.675-0.118l0.014 0.004c-0.047-0.017-0.082-0.033-0.117-0.049l0.009 0.004c-0.309-0.138-0.549-0.386-0.674-0.692l-0.003-0.009c-0.445-1.123-0.702-2.682-0.842-3.856 0.037-0.008 0.069-0.024 0.096-0.045l-0 0c0.051-0.041 0.109-0.082 0.173-0.125 0.295-0.196 0.64-0.349 1.008-0.438l0.022-0.005c0.281-0.070 0.603-0.111 0.935-0.113h0.199l0.077 0.003c0.056 0.002 0.112 0.006 0.17 0.011l0.065 0.005 0.081 0.008 0.082 0.009-0.003 0.113-0.031 1.084 2.813-5.547-0.023-1.364c-0.001-0.032-0.002-0.069-0.002-0.107 0-0.467 0.105-0.909 0.294-1.305l-0.008 0.018 0.17-0.366 0.249-1.171 0.013 0.003c0.024 0.005 0.048 0.014 0.070 0.026h0.002c0.391 0.215 0.176 1.326 0.138 1.506v0.007c-0.001 0.004-0.003 0.010-0.004 0.016l-0 0.002 2.055-1.983c0.003 0.011 0.006 0.022 0.008 0.033 0.002 0.007 0.004 0.014 0.004 0.020 0.002 0.010 0.004 0.020 0.006 0.031 0.006 0.044 0.008 0.088 0.006 0.132 0 0.012 0 0.024-0.003 0.037 0 0.001 0 0.001 0 0.002s-0 0.001-0 0.002v-0c0 0.008-0.001 0.015-0.003 0.023 0 0.017-0.005 0.035-0.008 0.054-0.008 0.038-0.017 0.077-0.029 0.116-0.005 0.018-0.009 0.032-0.014 0.045l0.002-0.005c-0.005 0.014-0.014 0.040-0.021 0.060-0.031 0.079-0.060 0.142-0.092 0.204l0.005-0.011c-0.012 0.024-0.026 0.048-0.038 0.072s-0.022 0.039-0.034 0.059c-0.030 0.052-0.055 0.092-0.082 0.131l0.006-0.009c-0.011 0.017-0.022 0.034-0.034 0.051s-0.023 0.035-0.035 0.052l-0.048 0.068c-0.060 0.081-0.109 0.145-0.159 0.207l0.009-0.012c-0.025 0.031-0.050 0.061-0.074 0.090-0.118 0.139-0.231 0.264-0.348 0.384l0.002-0.002c-0.004 0.004-0.008 0.007-0.011 0.011l-0 0c-0.004 0.004-0.008 0.007-0.012 0.011l-0.010 0.010-0.007 0.006-0.010 0.010-0.011 0.011-0.007 0.007-0.016 0.015 0.115-0.050c0.032-0.014 0.069-0.023 0.108-0.023 0.019 0 0.037 0.002 0.055 0.006l-0.002-0c0.063 0.012 0.118 0.045 0.157 0.090l0 0 0.012 0.013c0.046 0.054 0.074 0.125 0.074 0.202 0 0.061-0.018 0.118-0.048 0.166l0.001-0.001c0.037-0.027 0.082-0.043 0.132-0.043 0.034 0 0.067 0.008 0.096 0.022l-0.001-0.001 0.016 0.009c0.003 0.001 0.006 0.003 0.008 0.005l0.005 0.003c0.016 0.010 0.030 0.022 0.042 0.036l0 0 0.1 0.108c0.040 0.044 0.065 0.103 0.065 0.168 0 0.054-0.017 0.104-0.046 0.145l0.001-0.001-0.046 0.065-0.012 0.017c0.035-0.021 0.077-0.033 0.122-0.034h0c0.009-0.001 0.018-0.001 0.026 0 0.076 0.009 0.14 0.052 0.178 0.112l0.001 0.001c0.030 0.048 0.048 0.106 0.048 0.168 0 0.032-0.005 0.063-0.014 0.092l0.001-0.002z"></path>
<path fill="#ec685a" style="fill: var(--color7, #ec685a)" d="M20.892 14.54l-0.005 0.008-0.243 0.314c0.010-0.035 0.484-1.585 0.111-1.829 0.391 0.215 0.176 1.326 0.138 1.507zM21.88 14.495l-0.447 0.448s-0.043-0.152 0.243-0.45c0.279-0.292 1.393-1.354 1.273-1.881 0.172 0.697-1.034 1.849-1.069 1.883zM22.399 14.734c0 0 0 0.001 0 0.001 0 0.061-0.018 0.118-0.048 0.165l0.001-0.001-0.484 0.473s-0.026-0.125 0.145-0.315c0.165-0.183 0.378-0.491 0.143-0.629 0.063 0.012 0.117 0.045 0.157 0.090l0.012 0.013c0.047 0.053 0.075 0.123 0.075 0.2 0 0.001 0 0.001 0 0.002v-0zM22.771 15.353l-0.046 0.065-0.421 0.412s-0.026-0.124 0.145-0.314c0.163-0.181 0.374-0.488 0.147-0.627 0.021 0.011 0.039 0.026 0.056 0.042l0.1 0.108c0.041 0.045 0.066 0.104 0.066 0.17 0 0.054-0.017 0.104-0.046 0.145l0.001-0.001zM23.077 15.77c-0.020 0.073-0.046 0.144-0.078 0.212-0.383 0.854-1.646 2.032-1.646 2.032-0.36 1.399-0.754 2.654-1.151 3.758-0.143 0.424-0.195 0.563-0.248 0.701l0.094-0.282c-0.021 0.056-0.043 0.111-0.062 0.166-0.031 0.081-0.060 0.16-0.091 0.239l-0.024 0.063c-0.015 0.042-0.031 0.081-0.047 0.121-0.145 0.391-0.208 0.545-0.272 0.699l0.086-0.232c-0.034 0.085-0.069 0.17-0.104 0.255-0.004 0.009-0.008 0.018-0.011 0.027-0.164 0.409-0.262 0.631-0.361 0.851l0.072-0.178c-0.128 0.29-0.255 0.562-0.374 0.816-0.245 0.522-0.428 0.879-0.619 1.231l0.071-0.143c-0.277 0.519-0.837 0.836-1.418 0.922-0.093 0.015-0.199 0.024-0.308 0.024-0.237 0-0.464-0.042-0.675-0.118l0.014 0.004c0.263 0.074 0.542 0.068 0.801-0.017 0.404-0.127 0.797-0.438 1.114-0.934 0.207-0.324 0.418-0.699 0.628-1.104 0.060-0.101 0.188-0.357 0.312-0.615l0.071-0.164c0.098-0.207 0.195-0.419 0.291-0.634l0.010-0.023c0.023-0.051 0.046-0.102 0.068-0.154l0.043-0.096c0.105-0.24 0.208-0.481 0.308-0.722 0.075-0.179 0.149-0.358 0.22-0.536 0.316-0.779 0.601-1.533 0.835-2.172 0.391-1.071 0.638-1.819 0.638-1.819s0.016-0.353 0.089-0.499c0.073-0.146 1.197-1.046 1.512-1.459 0.001-0.001 0.002-0.002 0.003-0.003v-0c0.312-0.409-0.013-0.576-0.013-0.576l0.003-0.005c0.076 0.009 0.14 0.052 0.178 0.112l0.001 0.001c0.031 0.048 0.049 0.107 0.049 0.17 0 0.029-0.004 0.058-0.011 0.085l0.001-0.002zM17.207 21.647l-0.003 0.113-0.031 1.084s-0.208 0.322-0.41 0.671c-0.093 0.153-0.192 0.34-0.282 0.532l-0.016 0.038c0.066-0.164 0.13-0.367 0.181-0.574l0.007-0.032c0.117-0.492 0.192-1.16-0.047-1.721-0.025-0.060-0.049-0.108-0.075-0.156l0.004 0.007h0.198l0.077 0.003c0.056 0.003 0.112 0.006 0.17 0.011l0.065 0.005 0.081 0.008 0.082 0.011z"></path>
<path fill="#fff" style="fill: var(--color6, #fff)" opacity="0.41" d="M20.693 13.222c-0.031 0.244-0.156 0.968-0.156 0.968s-0.435 0.821-0.458 1.699c-0.023 0.877 0.101 1.382 0.101 1.382s-1.276 2.506-2.181 4.266c-0.402 0.781-0.73 1.413-0.843 1.614-0.101 0.182-0.193 0.329-0.291 0.472l0.013-0.021c-0.139 0.211-0.286 0.394-0.447 0.564l0.002-0.002 0.22-0.686c-0.057 0.24-0.122 0.442-0.199 0.638l0.011-0.032c0.106-0.23 0.205-0.417 0.313-0.598l-0.016 0.028c0.202-0.35 0.41-0.671 0.41-0.671l2.813-5.547-0.023-1.364c-0.001-0.032-0.002-0.069-0.002-0.107 0-0.467 0.105-0.909 0.294-1.305l-0.008 0.018 0.17-0.366 0.249-1.171c0.001-0.001 0.003-0.001 0.004-0.001 0.003 0 0.006 0.002 0.008 0.004v0c0.017 0.011 0.034 0.054 0.014 0.216zM22.941 12.58l-2.067 1.985-0.228 0.297s0.134 0.028 0.414-0.269c0.28-0.297 1.762-1.773 1.881-2.013z"></path>
<path fill="#04050f" style="fill: var(--color23, #04050f)" d="M41.434 30.137h-39.213c-0 0-0 0-0 0-0.211 0-0.382 0.171-0.382 0.382v0c0 0.211 0.171 0.382 0.382 0.382 0 0 0 0 0 0h39.213c0 0 0 0 0 0 0.211 0 0.382-0.171 0.382-0.382v0c-0-0.211-0.171-0.382-0.382-0.382-0 0-0 0-0 0h0z"></path>
</symbol>
<symbol id="icon-hours" viewBox="0 0 32 32">
<path d="M27.867 5.563l-0.176-2.98c-0.032-0.491-0.441-0.869-0.939-0.838-0.491 0.032-0.863 0.447-0.838 0.939l0.050 0.876c-2.57-1.921-5.689-2.967-8.965-2.967-4.007 0-7.774 1.562-10.603 4.391-0.347 0.346-0.347 0.907 0 1.26 0.479 0.479 1.084 0.176 1.26 0 2.495-2.495 5.815-3.874 9.349-3.874 2.81 0 5.481 0.869 7.711 2.482l-0.769 0.050c-0.491 0.032-0.863 0.447-0.838 0.939 0.025 0.473 0.422 0.838 0.888 0.838 0.019 0 3.030-0.176 3.030-0.176 0.491-0.032 0.863-0.447 0.838-0.939z"></path>
<path d="M13.579 28.356c-6.338-1.695-10.357-7.749-9.727-14.074l0.422 0.636c0.17 0.258 0.712 0.567 1.229 0.252 0.416-0.258 0.523-0.819 0.252-1.228l-1.638-2.495c-0.132-0.195-0.334-0.334-0.561-0.384-0.233-0.044-0.473 0-0.668 0.126l-2.488 1.638c-0.409 0.271-0.523 0.819-0.252 1.228s0.819 0.523 1.228 0.252l0.737-0.485c-0.863 7.283 3.73 14.301 11.006 16.247 0.076 0.019 0.863 0.113 1.090-0.63 0.145-0.466-0.151-0.958-0.63-1.084z"></path>
<path d="M31.489 11.706c-0.126-0.473-0.617-0.756-1.090-0.63s-0.756 0.617-0.63 1.090c1.695 6.338-1.531 12.852-7.327 15.466l0.34-0.687c0.22-0.441 0.044-0.97-0.397-1.191s-0.977-0.044-1.191 0.397l-1.336 2.665c-0.221 0.441-0.044 0.97 0.397 1.191l2.665 1.336c0.126 0.063 0.838 0.22 1.191-0.397 0.246-0.428 0.044-0.97-0.397-1.191l-0.8-0.403c6.741-2.885 10.521-10.363 8.574-17.646z"></path>
<path d="M12.898 18.78l1.6-1.669c0.624-0.649 1.632-1.569 1.632-2.911 0-0.838-0.643-2.709-2.879-2.709-1.701 0-2.835 1.31-3.251 1.953l1.581 0.939c0.498-0.794 1.027-1.191 1.581-1.191 1.077 0 1.040 0.743 1.040 1.040 0 0.781-0.932 1.657-1.455 2.192l-2.596 2.659v1.468h6.243v-1.77h-3.496z"></path>
<path d="M22.997 16.72v-1.543h-1.896v1.543h-1.254l2.999-5.027h-2.148l-3.156 5.229v1.506h3.559v2.117h1.896v-2.117h1.002v-1.707h-1.002z"></path>
<path d="M26.153 10.553c-0.302 0-0.573 0.12-0.813 0.365v-1.411h-0.8v3.956h0.8v-1.55c0-0.227 0.057-0.68 0.599-0.68 0.321 0 0.485 0.221 0.485 0.661v1.569h0.8v-1.739c0-0.567-0.353-1.172-1.071-1.172z"></path>
</symbol>
<symbol id="icon-account_circle" viewBox="0 0 32 32">
<path d="M16 2.667c-7.36 0-13.333 5.973-13.333 13.333s5.973 13.333 13.333 13.333c7.36 0 13.333-5.973 13.333-13.333s-5.973-13.333-13.333-13.333zM16 6.667c2.213 0 4 1.787 4 4s-1.787 4-4 4c-2.213 0-4-1.787-4-4s1.787-4 4-4zM16 25.6c-3.333 0-6.28-1.707-8-4.293 0.040-2.653 5.333-4.107 8-4.107 2.653 0 7.96 1.453 8 4.107-1.72 2.587-4.667 4.293-8 4.293z"></path>
</symbol>
<symbol id="icon-butterfly" viewBox="0 0 42 32">
<path stroke-linejoin="miter" stroke-linecap="butt" stroke-miterlimit="4" stroke-width="1.2973" d="M19.953 15.653c-2.896-5.873-10.378-16.461-17.136-11.827s6.967 16.719 9.622 17.684c2.655 0.965 4.074-1.651 1.239-4.41-3.653-3.555-8.206 10.62-3.138 13.033 4.055 1.931 10.346-8.382 10.62-10.378s-1.207-4.103-1.207-4.103z"></path>
<path stroke-linejoin="miter" stroke-linecap="butt" stroke-miterlimit="4" stroke-width="1.2973" d="M21.515 14.688c2.896-5.873 10.378-16.461 17.136-11.826s-6.967 16.719-9.622 17.684c-2.655 0.965-4.074-1.651-1.239-4.41 3.653-3.555 8.206 10.62 3.138 13.033-4.055 1.931-10.346-8.382-10.62-10.378s1.207-4.103 1.207-4.103z"></path>
</symbol>
<symbol id="icon-calendar-1" viewBox="0 0 32 32">
<path d="M24.125 14.375c0.69 0 1.25-0.56 1.25-1.25s-0.56-1.25-1.25-1.25c-0.69 0-1.25 0.56-1.25 1.25s0.56 1.25 1.25 1.25z"></path>
<path d="M18.687 14.375c0.69 0 1.25-0.56 1.25-1.25s-0.56-1.25-1.25-1.25c-0.69 0-1.25 0.56-1.25 1.25s0.56 1.25 1.25 1.25z"></path>
<path d="M7.813 25.25c0.69 0 1.25-0.56 1.25-1.25s-0.56-1.25-1.25-1.25c-0.69 0-1.25 0.56-1.25 1.25s0.56 1.25 1.25 1.25z"></path>
<path d="M7.813 14.375c0.69 0 1.25-0.56 1.25-1.25s-0.56-1.25-1.25-1.25c-0.69 0-1.25 0.56-1.25 1.25s0.56 1.25 1.25 1.25z"></path>
<path d="M7.813 19.813c0.69 0 1.25-0.56 1.25-1.25s-0.56-1.25-1.25-1.25c-0.69 0-1.25 0.56-1.25 1.25s0.56 1.25 1.25 1.25z"></path>
<path d="M13.25 19.813c0.69 0 1.25-0.56 1.25-1.25s-0.56-1.25-1.25-1.25c-0.69 0-1.25 0.56-1.25 1.25s0.56 1.25 1.25 1.25z"></path>
<path d="M13.25 14.375c0.69 0 1.25-0.56 1.25-1.25s-0.56-1.25-1.25-1.25c-0.69 0-1.25 0.56-1.25 1.25s0.56 1.25 1.25 1.25z"></path>
<path d="M13.25 25.25c0.69 0 1.25-0.56 1.25-1.25s-0.56-1.25-1.25-1.25c-0.69 0-1.25 0.56-1.25 1.25s0.56 1.25 1.25 1.25z"></path>
<path fill="none" stroke="#000" style="stroke: var(--color24, #000)" stroke-linejoin="miter" stroke-linecap="butt" stroke-miterlimit="4" stroke-width="1.8824" d="M20.305 18.126h2.353c1.040 0 1.882 0.843 1.882 1.882v2.353c0 1.040-0.843 1.882-1.882 1.882h-2.353c-1.040 0-1.882-0.843-1.882-1.882v-2.353c0-1.040 0.843-1.882 1.882-1.882z"></path>
<path fill="none" stroke="#000" style="stroke: var(--color24, #000)" stroke-linejoin="miter" stroke-linecap="butt" stroke-miterlimit="4" stroke-width="1.8824" d="M7.529 3.312h16.941c3.639 0 6.588 2.95 6.588 6.588v14.571c0 3.639-2.95 6.588-6.588 6.588h-16.941c-3.639 0-6.588-2.95-6.588-6.588v-14.571c0-3.639 2.95-6.588 6.588-6.588z"></path>
<path fill="none" stroke="#000" style="stroke: var(--color24, #000)" stroke-linejoin="miter" stroke-linecap="round" stroke-miterlimit="4" stroke-width="1.8824" d="M7.46 0.941l-0 4.636"></path>
<path fill="none" stroke="#000" style="stroke: var(--color24, #000)" stroke-linejoin="miter" stroke-linecap="round" stroke-miterlimit="4" stroke-width="1.8824" d="M16.349 0.941v4.636"></path>
<path fill="none" stroke="#000" style="stroke: var(--color24, #000)" stroke-linejoin="miter" stroke-linecap="round" stroke-miterlimit="4" stroke-width="1.8824" d="M24.645 0.941v4.636"></path>
</symbol>
<symbol id="icon-check" viewBox="0 0 32 32">
<path fill="#a89060" style="fill: var(--color25, #a89060)" d="M12 21.56l-5.56-5.56-1.893 1.88 7.453 7.453 16-16-1.88-1.88-14.12 14.107z"></path>
</symbol>
<symbol id="icon-comment-1" viewBox="0 0 32 32">
<path fill="#000" style="fill: var(--color24, #000)" d="M16 32c8.822 0 16-7.177 16-16 0-1.523-0.213-3.023-0.633-4.461-0.207-0.707-0.945-1.113-1.654-0.905-0.707 0.207-1.112 0.947-0.905 1.654 0.349 1.194 0.526 2.443 0.526 3.712 0 7.352-5.981 13.333-13.333 13.333s-13.333-5.981-13.333-13.333c0-7.352 5.981-13.333 13.333-13.333 2.672 0 5.243 0.781 7.434 2.259 0.61 0.412 1.439 0.25 1.851-0.36s0.251-1.439-0.36-1.851c-2.633-1.776-5.719-2.715-8.925-2.715-8.822 0-16 7.177-16 16s7.178 16 16 16z"></path>
<path fill="#ddd0a4" style="fill: var(--color10, #ddd0a4)" d="M29.724 3.057l-13.724 13.723-4.391-4.39c-0.521-0.521-1.365-0.521-1.885 0s-0.521 1.365 0 1.885l5.333 5.333c0.261 0.261 0.601 0.391 0.943 0.391s0.682-0.13 0.943-0.391l14.667-14.667c0.521-0.521 0.521-1.365 0-1.885s-1.365-0.521-1.885 0z"></path>
</symbol>
<symbol id="icon-google-docs-1" viewBox="0 0 32 32">
<path fill="#000" style="fill: var(--color24, #000)" d="M27.913 7.774l-7.5-7.5c-0.175-0.175-0.414-0.275-0.663-0.275h-13.125c-1.551 0-2.812 1.262-2.812 2.813v26.375c0 1.551 1.262 2.813 2.812 2.813h18.75c1.551 0 2.813-1.262 2.813-2.813v-20.75c0-0.256-0.107-0.496-0.275-0.663zM20.687 3.201l4.299 4.299h-3.362c-0.517 0-0.938-0.421-0.938-0.938v-3.362zM25.375 30.125h-18.75c-0.517 0-0.938-0.421-0.938-0.938v-26.375c0-0.517 0.421-0.938 0.938-0.938h12.188v4.687c0 1.551 1.262 2.813 2.813 2.813h4.688v19.813c0 0.517-0.421 0.938-0.938 0.938z"></path>
<path fill="#ddd0a4" style="fill: var(--color10, #ddd0a4)" d="M21.625 13.25h-11.25c-0.518 0-0.938 0.42-0.938 0.938s0.42 0.938 0.938 0.938h11.25c0.518 0 0.938-0.42 0.938-0.938s-0.42-0.938-0.938-0.938z"></path>
<path fill="#ddd0a4" style="fill: var(--color10, #ddd0a4)" d="M21.625 17h-11.25c-0.518 0-0.938 0.42-0.938 0.938s0.42 0.938 0.938 0.938h11.25c0.518 0 0.938-0.42 0.938-0.938s-0.42-0.938-0.938-0.938z"></path>
<path fill="#ddd0a4" style="fill: var(--color10, #ddd0a4)" d="M21.625 20.75h-11.25c-0.518 0-0.938 0.42-0.938 0.938s0.42 0.938 0.938 0.938h11.25c0.518 0 0.938-0.42 0.938-0.938s-0.42-0.938-0.938-0.938z"></path>
<path fill="#ddd0a4" style="fill: var(--color10, #ddd0a4)" d="M17.875 24.5h-7.5c-0.518 0-0.938 0.42-0.938 0.938s0.42 0.938 0.938 0.938h7.5c0.518 0 0.938-0.42 0.938-0.938s-0.42-0.938-0.938-0.938z"></path>
</symbol>
<symbol id="icon-Group-73" viewBox="0 0 37 32">
<path fill="none" stroke="#000" style="stroke: var(--color24, #000)" stroke-linejoin="miter" stroke-linecap="butt" stroke-miterlimit="4" stroke-width="2.0317" d="M3.556 4.571h29.46v25.397c0 0.561-0.455 1.016-1.016 1.016h-27.429c-0.561 0-1.016-0.455-1.016-1.016v-25.397z"></path>
<path fill="#fff" style="fill: var(--color6, #fff); stroke: var(--color24, #000)" stroke="#000" stroke-linejoin="miter" stroke-linecap="butt" stroke-miterlimit="4" stroke-width="2.0317" d="M2.032 1.016h32.508c0.561 0 1.016 0.455 1.016 1.016v3.048c0 0.561-0.455 1.016-1.016 1.016h-32.508c-0.561 0-1.016-0.455-1.016-1.016v-3.048c0-0.561 0.455-1.016 1.016-1.016z"></path>
<path fill="none" stroke="#ddd0a4" style="stroke: var(--color10, #ddd0a4)" stroke-linejoin="miter" stroke-linecap="butt" stroke-miterlimit="4" stroke-width="1.5238" d="M13.46 12.444h9.651c0.842 0 1.524 0.682 1.524 1.524s-0.682 1.524-1.524 1.524h-9.651c-0.842 0-1.524-0.682-1.524-1.524s0.682-1.524 1.524-1.524z"></path>
</symbol>
<symbol id="icon-insurance-1" viewBox="0 0 33 32">
<path d="M17.973 28v2.5c0 0.133 0.054 0.26 0.15 0.354s0.227 0.146 0.363 0.146h11.297c0.136 0 0.267-0.053 0.363-0.146s0.15-0.221 0.15-0.354v-2.5c0-0.133-0.054-0.26-0.15-0.354s-0.227-0.146-0.363-0.146v-6c0-0.060-0.011-0.119-0.033-0.176l-1.041-2.702c-0.185-0.476-0.514-0.885-0.943-1.175s-0.939-0.446-1.461-0.447h-4.739v-3.338c0.802 0.371 1.718 0.44 2.569 0.192 0.537 0.156 1.103 0.187 1.654 0.092s1.072-0.314 1.521-0.64 0.813-0.749 1.065-1.236c0.251-0.487 0.382-1.025 0.382-1.57s-0.131-1.083-0.382-1.57c-0.251-0.487-0.616-0.911-1.065-1.236s-0.97-0.545-1.521-0.64c-0.551-0.095-1.118-0.063-1.654 0.093-0.851-0.247-1.766-0.179-2.568 0.192v-4.838c-0-0.398-0.163-0.779-0.452-1.060s-0.68-0.439-1.089-0.44h-10.27c-0.408 0-0.8 0.159-1.089 0.44s-0.451 0.662-0.452 1.060v11h-0.005c-0.406-0.002-0.802 0.125-1.128 0.359s-0.567 0.566-0.685 0.944l-1.754 5.549c-0.008 0.027-0.014 0.054-0.018 0.081l-0.967 7.066h-0.064c-0.136 0-0.267 0.053-0.363 0.146s-0.15 0.221-0.15 0.354v2.5c0 0.133 0.054 0.26 0.15 0.354s0.227 0.146 0.363 0.146h11.297c0.136 0 0.267-0.053 0.363-0.146s0.15-0.221 0.15-0.354v-2.5c-0-0.105-0.034-0.208-0.098-0.293s-0.153-0.149-0.256-0.182l0.741-2.525h0.855l1.528 2.603c-0.063 0.047-0.114 0.107-0.149 0.175s-0.053 0.145-0.053 0.222zM29.27 30h-10.27v-1.5h10.27v1.5zM25.162 8c0.508 0 1.004 0.147 1.426 0.421s0.751 0.665 0.946 1.122c0.194 0.457 0.245 0.959 0.146 1.444s-0.344 0.93-0.703 1.28c-0.359 0.35-0.817 0.588-1.315 0.684s-1.014 0.047-1.483-0.142c-0.469-0.189-0.87-0.51-1.152-0.921s-0.433-0.894-0.433-1.389c0.001-0.663 0.272-1.298 0.753-1.767s1.134-0.732 1.815-0.733zM22.599 8.050c-0.661 0.653-1.031 1.534-1.031 2.45s0.37 1.797 1.031 2.45c-0.581-0.114-1.103-0.421-1.479-0.867s-0.58-1.006-0.58-1.583c0-0.577 0.205-1.136 0.58-1.583s0.898-0.753 1.479-0.867zM14.378 30h-10.27v-1.5h10.27v1.5zM13.991 27.5h-9.296l0.944-6.893 1.741-5.509c0.064-0.201 0.202-0.372 0.388-0.479s0.406-0.144 0.618-0.101c0.212 0.042 0.4 0.159 0.528 0.329s0.186 0.379 0.164 0.589l-0.855 5.997c-0.012 0.088-0.001 0.177 0.034 0.26s0.091 0.154 0.164 0.207c0.024 0.017 2.365 1.774 2.365 3.602 0 0.133 0.054 0.26 0.15 0.354s0.227 0.146 0.363 0.146 0.267-0.053 0.363-0.146c0.096-0.094 0.15-0.221 0.15-0.354-0.001-0.167-0.014-0.335-0.041-0.5h2.955l-0.734 2.5zM16.481 24h-5.015c-0.57-1.28-1.694-2.303-2.188-2.71l0.817-5.725c0.001-0.005 0.001-0.009 0.002-0.014 0.039-0.341-0.020-0.685-0.171-0.995s-0.387-0.572-0.682-0.759v-11.298c0-0.133 0.054-0.26 0.151-0.353s0.227-0.146 0.363-0.147h2.25l0.372 0.724c0.043 0.083 0.108 0.153 0.189 0.202s0.175 0.075 0.27 0.075h4.108c0.095 0 0.189-0.026 0.27-0.075s0.147-0.119 0.189-0.202l0.372-0.724h2.25c0.136 0 0.267 0.053 0.363 0.147s0.15 0.221 0.151 0.353v5.554c-0.658 0.653-1.027 1.531-1.027 2.446s0.369 1.793 1.027 2.446v4.054h-0.621l-2.59-5.325c-0.159-0.327-0.418-0.599-0.742-0.778s-0.696-0.255-1.066-0.22c0.762-0.575 2.452-2.136 2.452-4.678 0-0.086-0.023-0.171-0.067-0.246s-0.107-0.138-0.183-0.182l-2.568-1.5c-0.080-0.047-0.171-0.071-0.264-0.071s-0.184 0.025-0.264 0.071l-2.568 1.5c-0.076 0.044-0.138 0.107-0.182 0.181s-0.067 0.159-0.067 0.245c-0.001 0.134 0.014 3.304 2.818 4.932 0.021 0.012 0.043 0.023 0.066 0.032-0.333 0.216-0.583 0.533-0.711 0.902s-0.127 0.769 0.002 1.137h-2.175c-0.136 0-0.267 0.053-0.363 0.146s-0.15 0.221-0.15 0.354v4c0 0.133 0.054 0.26 0.15 0.354s0.227 0.146 0.363 0.146h4.414l0.449 1h-4.863c-0.136 0-0.267 0.053-0.363 0.146s-0.15 0.221-0.15 0.354v2c0 0.133 0.054 0.26 0.15 0.354s0.227 0.146 0.363 0.146h4.876l-0.205 2zM14.88 9.897c-1.625-1.109-1.957-2.939-2.025-3.624l2.037-1.19 2.046 1.195c-0.119 1.973-1.478 3.188-2.057 3.619zM15.776 17h-3.451v-3h2.103l1.348 3zM16.789 21h-4.465v-1h4.568l-0.103 1zM17.473 24.391l0.497-4.841c0.009-0.085-0.005-0.171-0.041-0.25l-2.95-6.566c-0.082-0.183-0.087-0.39-0.014-0.576s0.219-0.337 0.406-0.42c0.187-0.083 0.399-0.091 0.592-0.022s0.35 0.208 0.438 0.388l4.189 8.611c0.058 0.12 0.163 0.212 0.291 0.257s0.27 0.038 0.393-0.019 0.218-0.159 0.264-0.284c0.046-0.125 0.039-0.262-0.020-0.382l-1.112-2.286h1.358l1.399 2.724c0.030 0.059 0.071 0.112 0.122 0.156s0.11 0.077 0.174 0.098c0.064 0.021 0.132 0.030 0.2 0.025s0.134-0.022 0.194-0.052c0.061-0.030 0.115-0.070 0.159-0.12s0.078-0.108 0.099-0.171c0.021-0.063 0.029-0.129 0.024-0.195s-0.024-0.13-0.055-0.189l-1.169-2.276h1.419l1.399 2.724c0.030 0.059 0.071 0.112 0.122 0.156s0.11 0.077 0.174 0.098 0.132 0.030 0.2 0.025c0.068-0.005 0.134-0.022 0.194-0.052s0.115-0.070 0.159-0.12c0.044-0.050 0.078-0.108 0.099-0.171s0.029-0.129 0.024-0.195c-0.005-0.066-0.024-0.13-0.055-0.189l-1.169-2.276h0.827c0.313 0.001 0.619 0.095 0.877 0.268s0.455 0.42 0.566 0.705l1.008 2.617v5.909h-9.459l-1.825-3.109z"></path>
<path d="M24.135 11.5c0 0.133 0.054 0.26 0.15 0.354s0.227 0.146 0.363 0.146h0.514c0.272 0 0.534-0.105 0.726-0.293s0.301-0.442 0.301-0.707c0-0.265-0.108-0.52-0.301-0.707s-0.454-0.293-0.726-0.293h0.514c0.136 0 0.267-0.053 0.363-0.146s0.15-0.221 0.15-0.354c0-0.133-0.054-0.26-0.15-0.354s-0.227-0.146-0.363-0.146h-0.514c-0.272 0-0.534 0.105-0.726 0.293s-0.301 0.442-0.301 0.707c0 0.265 0.108 0.52 0.301 0.707s0.454 0.293 0.726 0.293h-0.514c-0.136 0-0.267 0.053-0.363 0.146s-0.15 0.221-0.15 0.354z"></path>
</symbol>
<symbol id="icon-lab-1" viewBox="0 0 32 32">
<path d="M8.806 14.679l2.053 2.020c0.161 0.158 0.37 0.242 0.586 0.242 0.097 0 0.195-0.017 0.29-0.052 0.307-0.112 0.517-0.383 0.549-0.709l0.275-2.867c0.002-0.018 0.011-0.035 0.026-0.046 1.887-1.379 3.013-3.595 3.013-5.929 0-1.979-0.776-3.835-2.186-5.225s-3.273-2.14-5.257-2.112c-1.912 0.027-3.716 0.792-5.079 2.155s-2.128 3.167-2.155 5.079c-0.028 1.981 0.723 3.848 2.112 5.257s3.246 2.186 5.225 2.186c0.166 0 0.334-0.006 0.499-0.017 0.018-0.001 0.035 0.005 0.048 0.018zM8.259 13.739c-1.727 0-3.345-0.677-4.558-1.907s-1.867-2.858-1.843-4.586c0.023-1.667 0.691-3.24 1.88-4.429s2.762-1.857 4.429-1.88c1.727-0.023 3.356 0.63 4.586 1.843s1.907 2.831 1.907 4.558c0 2.036-0.983 3.969-2.629 5.172-0.231 0.169-0.379 0.429-0.406 0.713l-0.255 2.662-1.907-1.875c-0.188-0.185-0.44-0.288-0.702-0.288-0.022 0-0.044 0.001-0.067 0.002-0.144 0.010-0.291 0.015-0.436 0.015z"></path>
<path d="M31.009 24.128l-2.308-12.923c-0.181-1.011-1.058-1.746-2.085-1.746h-1.464c-0.244-0.422-0.579-0.784-0.977-1.063l0.56-1.537c0.15-0.413-0.064-0.87-0.476-1.021l-0.8-0.291 0.881-2.419c0.15-0.413-0.062-0.868-0.475-1.019l-1.701-0.619c-0.413-0.15-0.868 0.062-1.019 0.475l-0.881 2.419-0.8-0.291c-0.412-0.15-0.87 0.063-1.020 0.476l-3.528 9.691c-0.15 0.413 0.063 0.871 0.476 1.021l0.107 0.039-0.41 1.127c-0.075 0.207-0.066 0.431 0.028 0.631s0.258 0.351 0.465 0.426l3.029 1.102c0.092 0.034 0.188 0.050 0.283 0.050 0.119 0 0.237-0.026 0.348-0.078 0.2-0.093 0.351-0.258 0.427-0.465l0.41-1.128 0.107 0.039c0.089 0.032 0.181 0.049 0.273 0.049 0.318 0 0.628-0.195 0.748-0.524l0.773-2.123c1.353 0.12 2.598-0.585 3.218-1.729 0.112 0.062 0.189 0.182 0.189 0.319v3.608c0 0.259 0.21 0.469 0.469 0.469s0.469-0.21 0.469-0.469v-3.608c0-0.54-0.331-1.004-0.8-1.201 0.048-0.225 0.074-0.458 0.074-0.697 0-0.248-0.028-0.49-0.080-0.723h1.097c0.573 0 1.062 0.409 1.162 0.973l2.308 12.922c0.184 1.029-0.096 2.079-0.767 2.88s-1.655 1.261-2.701 1.261c-0.46 0-11.624-0-12.084-0v-3.793c0.193 0 7.878-0 9.644-0 1.184 0 2.147-0.963 2.147-2.147v-3.679c0-0.259-0.21-0.469-0.469-0.469s-0.469 0.21-0.469 0.469v3.679c0 0.667-0.543 1.209-1.209 1.209h-0.869v-1.668c0-0.431-0.35-0.781-0.781-0.781h-10.125c-0.431 0-0.781 0.35-0.781 0.781v1.825c0 0.431 0.35 0.781 0.781 0.781h1.194v3.793h-4.199c-0.431 0-0.781 0.35-0.781 0.781v2.003c0 0.431 0.35 0.781 0.781 0.781h3.574c0.259 0 0.469-0.21 0.469-0.469s-0.21-0.469-0.469-0.469h-3.417v-1.691c1.551 0 14.432 0 15.822 0v1.691h-10.217c-0.259 0-0.469 0.21-0.469 0.469s0.21 0.469 0.469 0.469h10.373c0.431 0 0.781-0.35 0.781-0.781v-1.847h0.305c1.323 0 2.57-0.582 3.419-1.597s1.203-2.344 0.971-3.647zM21.978 2.421l1.432 0.521-0.832 2.285-1.432-0.521 0.832-2.285zM18.827 17.689l-2.817-1.025 0.372-1.021 2.817 1.025-0.372 1.021zM20.375 16.097c-0.821-0.299-3.971-1.445-4.529-1.648l3.431-9.426c0.42 0.153 4.529 1.648 4.529 1.648l-0.473 1.3c-0.332-0.111-0.686-0.173-1.055-0.173-1.831 0-3.321 1.49-3.321 3.321 0 1.402 0.874 2.604 2.106 3.090l-0.687 1.886zM22.277 13.505c-1.314 0-2.384-1.069-2.384-2.384s1.069-2.384 2.384-2.384c1.315 0 2.384 1.069 2.384 2.384s-1.070 2.384-2.384 2.384zM12.559 22.191h9.812v1.512c-0.054 0-8.27 0-9.812 0v-1.512z"></path>
<path d="M22.278 9.701c-0.783 0-1.42 0.637-1.42 1.42s0.637 1.42 1.42 1.42c0.783 0 1.42-0.637 1.42-1.42s-0.637-1.42-1.42-1.42zM22.278 11.603c-0.266 0-0.482-0.216-0.482-0.482s0.216-0.482 0.482-0.482c0.266 0 0.482 0.216 0.482 0.482s-0.216 0.482-0.482 0.482z"></path>
<path d="M11.173 6.884c0.807 0 1.464-0.657 1.464-1.464s-0.657-1.464-1.464-1.464c-0.807 0-1.464 0.657-1.464 1.464s0.657 1.464 1.464 1.464zM11.173 4.893c0.29 0 0.526 0.236 0.526 0.526s-0.236 0.526-0.526 0.526c-0.29 0-0.526-0.236-0.526-0.526s0.236-0.526 0.526-0.526z"></path>
<path d="M4.901 5.809c-0.807 0-1.464 0.657-1.464 1.464s0.657 1.464 1.464 1.464c0.807 0 1.464-0.657 1.464-1.464s-0.657-1.464-1.464-1.464zM4.901 7.799c-0.29 0-0.526-0.236-0.526-0.526s0.236-0.526 0.526-0.526c0.29 0 0.526 0.236 0.526 0.526s-0.236 0.526-0.526 0.526z"></path>
<path d="M12.116 8.883l-0.714 0.714c-0.183 0.183-0.183 0.48-0 0.663 0.092 0.092 0.211 0.137 0.332 0.137s0.24-0.046 0.331-0.137l0.714-0.714c0.183-0.183 0.183-0.48 0-0.663s-0.48-0.183-0.663 0z"></path>
<path d="M7.464 3.182c-0.183-0.183-0.48-0.183-0.663 0l-0.714 0.714c-0.183 0.183-0.183 0.48 0 0.663 0.091 0.092 0.212 0.137 0.331 0.137s0.24-0.046 0.332-0.137l0.714-0.714c0.183-0.183 0.183-0.48-0-0.663z"></path>
<path d="M8.948 7.092l-0.714-0.714c-0.183-0.183-0.48-0.183-0.663 0s-0.183 0.48-0 0.663l0.714 0.714c0.092 0.092 0.211 0.137 0.332 0.137s0.24-0.046 0.331-0.137c0.183-0.183 0.183-0.48 0-0.663z"></path>
<path d="M7.645 10.116l-0.714 0.714c-0.183 0.183-0.183 0.48 0 0.663 0.091 0.092 0.212 0.137 0.331 0.137s0.24-0.046 0.332-0.137l0.714-0.714c0.183-0.183 0.183-0.48-0-0.663s-0.48-0.183-0.663 0z"></path>
</symbol>
<symbol id="icon-logos-1" viewBox="0 0 29 32">
<path fill="#313c48" style="fill: var(--color26, #313c48)" d="M14.621 3.556v-3.556l8.658 8.46c0.142 0.138 0.143 0.366 0.003 0.505l-1.279 1.276c-0.138 0.138-0.361 0.139-0.501 0.003l-6.88-6.688z"></path>
<path fill="#535d69" style="fill: var(--color27, #535d69)" d="M14.621 3.556v-3.556l-8.658 8.46c-0.142 0.138-0.143 0.366-0.003 0.505l1.279 1.276c0.138 0.138 0.361 0.139 0.501 0.003l6.88-6.688z"></path>
<path fill="#ddd0a4" style="fill: var(--color10, #ddd0a4)" d="M14.799 17.244l-4.195-4.015c-0.144-0.138-0.146-0.367-0.005-0.508l1.103-1.1c0.136-0.136 0.356-0.139 0.496-0.008l2.601 2.431v3.2z"></path>
<path fill="#a89060" style="fill: var(--color25, #a89060)" d="M14.799 17.244l4.195-4.015c0.144-0.138 0.146-0.367 0.005-0.508l-1.103-1.1c-0.136-0.136-0.356-0.139-0.496-0.008l-2.601 2.431v3.2z"></path>
<path fill="#ddd0a4" style="fill: var(--color10, #ddd0a4)" d="M14.498 6.756l-1.765 1.76c-0.139 0.139-0.139 0.364 0 0.503l1.765 1.76v-4.023z"></path>
<path fill="#a89060" style="fill: var(--color25, #a89060)" d="M14.498 6.756l1.765 1.76c0.139 0.139 0.139 0.364 0 0.503l-1.765 1.76v-4.023z"></path>
<path fill="#313c48" style="fill: var(--color26, #313c48)" d="M14.464 19.2c-3.031 0-5.721 1.465-7.405 3.728 2.121-1.554 4.578-2.471 7.405-2.471 2.529 0 5.044 0.734 7.031 2.001-1.694-1.994-4.216-3.258-7.031-3.258z"></path>
<path fill="#535d69" style="fill: var(--color27, #535d69)" d="M7.059 22.928c1.684-2.263 4.374-3.728 7.405-3.728v1.257c-2.827 0-5.284 0.917-7.405 2.471z"></path>
<path fill="#313c48" style="fill: var(--color26, #313c48)" d="M1.076 27.24c-0.013 0.185-0.033 0.334-0.063 0.448-0.029 0.113-0.077 0.208-0.142 0.285v0.017h1.316v-2.1h-1.026l-0.086 1.35zM0.547 28.444v0.594h-0.491v-1.048h0.215c0.102-0.064 0.175-0.157 0.219-0.279 0.045-0.124 0.073-0.292 0.086-0.504l0.109-1.769h2.039v2.552h0.376v1.048h-0.489v-0.594h-2.064zM5.439 27.99v0.454h-1.952v-3.006h1.952v0.454h-1.412v0.812h1.335v0.427h-1.335v0.858h1.412zM8.36 28.444h-0.539v-2.554h-0.959l-0.082 1.39c-0.024 0.401-0.102 0.7-0.236 0.896-0.134 0.194-0.338 0.292-0.612 0.292-0.078 0-0.144-0.008-0.196-0.025v-0.471c0.042 0.010 0.085 0.015 0.13 0.015 0.138 0 0.238-0.058 0.301-0.175 0.063-0.118 0.101-0.306 0.115-0.563l0.098-1.81h1.981v3.006zM10.261 25.388c0.439 0 0.786 0.14 1.043 0.419 0.258 0.279 0.387 0.658 0.387 1.135s-0.129 0.856-0.387 1.135c-0.256 0.278-0.604 0.417-1.043 0.417-0.44 0-0.789-0.139-1.047-0.417-0.256-0.279-0.384-0.658-0.384-1.135s0.128-0.856 0.384-1.135c0.258-0.279 0.607-0.419 1.047-0.419zM10.903 26.144c-0.159-0.199-0.373-0.298-0.642-0.298s-0.483 0.099-0.641 0.296c-0.159 0.197-0.238 0.464-0.238 0.8 0 0.335 0.079 0.601 0.238 0.798s0.373 0.296 0.641 0.296c0.269 0 0.483-0.099 0.642-0.296s0.238-0.463 0.238-0.798c0-0.335-0.079-0.601-0.238-0.798zM15.625 26.869l1.308 1.575h-0.675l-1.13-1.371h-0.017v1.371h-0.527v-1.371h-0.017l-1.139 1.371h-0.658l1.298-1.569-1.208-1.438h0.627l1.080 1.315h0.017v-1.315h0.527v1.315h0.017l1.082-1.315h0.616l-1.201 1.431zM19.275 28.444v-2.162h-0.027l-1.465 2.162h-0.522v-3.006h0.537v2.169h0.027l1.463-2.169h0.522v3.006h-0.535zM20.989 27.126v-0.433h0.401c0.164 0 0.297-0.042 0.399-0.127s0.152-0.195 0.152-0.331c0-0.135-0.048-0.241-0.144-0.319-0.095-0.079-0.225-0.119-0.391-0.119-0.167 0-0.302 0.041-0.405 0.123s-0.16 0.194-0.171 0.335h-0.504c0.014-0.274 0.119-0.49 0.315-0.65 0.196-0.161 0.456-0.242 0.779-0.242 0.308 0 0.559 0.076 0.752 0.227 0.194 0.15 0.29 0.344 0.29 0.583 0 0.168-0.052 0.316-0.157 0.444s-0.24 0.21-0.407 0.248v0.017c0.202 0.024 0.362 0.102 0.481 0.235s0.178 0.301 0.178 0.504c0 0.257-0.109 0.471-0.328 0.642-0.217 0.171-0.49 0.256-0.819 0.256-0.336 0-0.609-0.083-0.821-0.248-0.21-0.165-0.322-0.384-0.336-0.656h0.518c0.011 0.14 0.075 0.252 0.19 0.335 0.117 0.082 0.267 0.123 0.451 0.123 0.177 0 0.32-0.044 0.428-0.133s0.163-0.206 0.163-0.35c0-0.146-0.054-0.26-0.161-0.342-0.106-0.082-0.253-0.123-0.443-0.123h-0.412zM25.542 28.444h-0.537v-1.304h-1.467v1.304h-0.539v-3.006h0.539v1.25h1.467v-1.25h0.537v3.006zM28.13 28.444v-2.162h-0.027l-1.465 2.162h-0.522v-3.006h0.537v2.169h0.027l1.463-2.169h0.522v3.006h-0.535z"></path>
<path fill="#a89060" style="fill: var(--color25, #a89060)" d="M5.364 30.548h-0.247c-0.015-0.052-0.042-0.094-0.083-0.127s-0.092-0.049-0.154-0.049c-0.082 0-0.148 0.033-0.196 0.099s-0.072 0.154-0.072 0.266c0 0.113 0.024 0.202 0.072 0.268s0.115 0.097 0.197 0.097c0.062 0 0.113-0.015 0.154-0.046s0.069-0.074 0.084-0.129h0.247c-0.016 0.117-0.068 0.21-0.155 0.28s-0.197 0.104-0.331 0.104c-0.162 0-0.291-0.051-0.387-0.154s-0.143-0.243-0.143-0.42c0-0.175 0.048-0.315 0.143-0.419s0.224-0.156 0.384-0.156c0.135 0 0.246 0.036 0.332 0.109s0.138 0.165 0.154 0.277zM6.382 30.185v0.2h-0.341v0.904h-0.258v-0.904h-0.341v-0.2h0.939zM7.152 30.166c0.141 0 0.252 0.051 0.335 0.153s0.124 0.241 0.124 0.418c0 0.176-0.041 0.315-0.123 0.417s-0.193 0.153-0.332 0.153c-0.079 0-0.149-0.018-0.21-0.053s-0.106-0.085-0.137-0.148h-0.005v0.547h-0.26v-1.468h0.254v0.191h0.005c0.032-0.065 0.078-0.116 0.139-0.153s0.131-0.056 0.21-0.056zM7.073 31.094c0.084 0 0.151-0.032 0.199-0.096s0.073-0.152 0.073-0.261c0-0.109-0.025-0.196-0.074-0.26s-0.115-0.097-0.198-0.097c-0.081 0-0.146 0.033-0.195 0.098s-0.075 0.152-0.075 0.259c0.001 0.108 0.026 0.195 0.075 0.26s0.115 0.097 0.195 0.097zM8.206 31.111c0.075 0 0.137-0.022 0.188-0.066s0.077-0.1 0.077-0.166v-0.084l-0.256 0.016c-0.063 0.004-0.111 0.020-0.146 0.047s-0.051 0.062-0.051 0.105c0 0.045 0.017 0.081 0.051 0.108s0.080 0.040 0.137 0.040zM8.128 31.307c-0.108 0-0.197-0.031-0.266-0.093s-0.103-0.142-0.103-0.241c0-0.098 0.036-0.175 0.109-0.232s0.177-0.090 0.312-0.098l0.293-0.017v-0.079c0-0.058-0.018-0.102-0.055-0.134s-0.087-0.048-0.152-0.048c-0.061 0-0.11 0.014-0.148 0.041s-0.062 0.064-0.070 0.11h-0.241c0.006-0.105 0.051-0.19 0.135-0.255s0.197-0.099 0.335-0.099c0.137 0 0.247 0.033 0.329 0.1s0.124 0.156 0.124 0.267v0.76h-0.251v-0.176h-0.005c-0.031 0.059-0.079 0.106-0.142 0.142s-0.131 0.052-0.203 0.052zM9.39 30.893h-0.005l-0.23 0.396h-0.277l0.357-0.551-0.354-0.553h0.293l0.224 0.388h0.005l0.22-0.388h0.285l-0.356 0.546 0.352 0.558h-0.284l-0.23-0.396zM10.914 31.158c-0.097 0.102-0.227 0.153-0.391 0.153s-0.294-0.051-0.391-0.153c-0.097-0.103-0.145-0.243-0.145-0.421s0.049-0.317 0.146-0.42c0.098-0.104 0.227-0.155 0.39-0.155s0.293 0.052 0.39 0.155c0.098 0.103 0.146 0.243 0.146 0.42s-0.048 0.318-0.145 0.421zM10.325 31.009c0.049 0.065 0.115 0.097 0.198 0.097s0.15-0.032 0.198-0.097c0.049-0.065 0.073-0.155 0.073-0.272s-0.024-0.206-0.073-0.271c-0.049-0.065-0.115-0.098-0.198-0.098s-0.149 0.033-0.198 0.098c-0.049 0.065-0.073 0.155-0.073 0.271s0.024 0.207 0.073 0.272zM11.711 30.361h-0.21v0.275h0.19c0.123 0 0.184-0.047 0.184-0.14 0-0.043-0.014-0.076-0.043-0.1s-0.068-0.035-0.121-0.035zM11.707 30.8h-0.206v0.313h0.227c0.062 0 0.109-0.013 0.142-0.040s0.049-0.066 0.049-0.117c0-0.104-0.071-0.156-0.212-0.156zM11.246 31.289v-1.104h0.525c0.111 0 0.199 0.025 0.262 0.075s0.095 0.118 0.095 0.205c0 0.058-0.019 0.109-0.056 0.155s-0.083 0.073-0.138 0.082v0.008c0.073 0.010 0.132 0.038 0.177 0.085s0.067 0.105 0.067 0.174c0 0.098-0.036 0.176-0.108 0.233s-0.168 0.085-0.29 0.085h-0.534zM12.776 31.111c0.074 0 0.137-0.022 0.188-0.066s0.077-0.1 0.077-0.166v-0.084l-0.256 0.016c-0.063 0.004-0.111 0.020-0.146 0.047s-0.051 0.062-0.051 0.105c0 0.045 0.017 0.081 0.051 0.108s0.080 0.040 0.137 0.040zM12.698 31.307c-0.108 0-0.197-0.031-0.266-0.093s-0.103-0.142-0.103-0.241c0-0.098 0.036-0.175 0.109-0.232s0.177-0.090 0.312-0.098l0.293-0.017v-0.079c0-0.058-0.018-0.102-0.055-0.134s-0.087-0.048-0.152-0.048c-0.061 0-0.11 0.014-0.148 0.041s-0.062 0.064-0.070 0.11h-0.241c0.006-0.105 0.051-0.19 0.135-0.255s0.197-0.099 0.335-0.099c0.137 0 0.247 0.033 0.329 0.1s0.124 0.156 0.124 0.267v0.76h-0.251v-0.176h-0.005c-0.031 0.059-0.079 0.106-0.142 0.142s-0.131 0.052-0.203 0.052zM13.964 30.73h0.192v-0.347h-0.192c-0.060 0-0.108 0.016-0.143 0.048s-0.052 0.075-0.052 0.13c0 0.049 0.018 0.090 0.053 0.122s0.083 0.047 0.142 0.047zM14.156 31.289v-0.37h-0.148l-0.258 0.37h-0.29l0.298-0.41c-0.077-0.024-0.138-0.063-0.182-0.118s-0.065-0.122-0.065-0.199c0-0.116 0.039-0.208 0.117-0.275s0.184-0.102 0.317-0.102h0.467v1.104h-0.255zM15.579 30.7l0.491 0.589h-0.319l-0.412-0.494h-0.008v0.494h-0.259v-1.104h0.259v0.46h0.008l0.405-0.46h0.303l-0.469 0.516zM17.053 31.158c-0.097 0.102-0.227 0.153-0.391 0.153s-0.294-0.051-0.391-0.153c-0.097-0.103-0.145-0.243-0.145-0.421s0.049-0.317 0.146-0.42c0.098-0.104 0.227-0.155 0.39-0.155s0.293 0.052 0.39 0.155c0.098 0.103 0.146 0.243 0.146 0.42s-0.048 0.318-0.145 0.421zM16.464 31.009c0.049 0.065 0.115 0.097 0.198 0.097s0.15-0.032 0.198-0.097c0.049-0.065 0.073-0.155 0.073-0.272s-0.024-0.206-0.073-0.271c-0.049-0.065-0.115-0.098-0.198-0.098s-0.149 0.033-0.198 0.098c-0.049 0.065-0.073 0.155-0.073 0.271s0.024 0.207 0.073 0.272zM17.633 31.289h-0.248v-1.104h0.331l0.327 0.771h0.008l0.327-0.771h0.326v1.104h-0.248v-0.755h-0.008l-0.312 0.704h-0.184l-0.312-0.704h-0.007v0.755zM19.654 31.289v-0.904h-0.458v0.904h-0.259v-1.104h0.977v1.104h-0.26zM20.553 31.111c0.074 0 0.137-0.022 0.188-0.066s0.077-0.1 0.077-0.166v-0.084l-0.256 0.016c-0.063 0.004-0.111 0.020-0.146 0.047s-0.051 0.062-0.051 0.105c0 0.045 0.017 0.081 0.051 0.108s0.080 0.040 0.137 0.040zM20.475 31.307c-0.108 0-0.197-0.031-0.266-0.093s-0.103-0.142-0.103-0.241c0-0.098 0.036-0.175 0.109-0.232s0.177-0.090 0.312-0.098l0.293-0.017v-0.079c0-0.058-0.018-0.102-0.055-0.134s-0.087-0.048-0.151-0.048c-0.061 0-0.11 0.014-0.148 0.041s-0.062 0.064-0.070 0.11h-0.241c0.006-0.105 0.050-0.19 0.135-0.255s0.197-0.099 0.335-0.099c0.137 0 0.247 0.033 0.329 0.1s0.124 0.156 0.124 0.267v0.76h-0.251v-0.176h-0.005c-0.031 0.059-0.079 0.106-0.142 0.142s-0.131 0.052-0.203 0.052zM22.030 31.289v-0.469h-0.468v0.469h-0.259v-1.104h0.259v0.435h0.468v-0.435h0.259v1.104h-0.259zM22.778 31.289h-0.255v-1.104h0.255v0.738h0.008l0.482-0.738h0.255v1.104h-0.255v-0.743h-0.008l-0.482 0.743zM24.194 30.73h0.192v-0.347h-0.192c-0.060 0-0.108 0.016-0.143 0.048s-0.052 0.075-0.052 0.13c0 0.049 0.018 0.090 0.053 0.122s0.083 0.047 0.142 0.047zM24.386 31.289v-0.37h-0.148l-0.258 0.37h-0.29l0.298-0.41c-0.077-0.024-0.138-0.063-0.182-0.118s-0.065-0.122-0.065-0.199c0-0.116 0.039-0.208 0.117-0.275s0.184-0.102 0.317-0.102h0.467v1.104h-0.255z"></path>
</symbol>
<symbol id="icon-phone-call-2-1-1" viewBox="0 0 32 32">
<path fill="#000" style="fill: var(--color24, #000)" d="M25.29 19.823c-0.655-0.682-1.445-1.047-2.283-1.047-0.831 0-1.628 0.358-2.31 1.040l-2.134 2.127c-0.176-0.095-0.351-0.182-0.52-0.27-0.243-0.122-0.473-0.236-0.669-0.358-1.999-1.27-3.816-2.924-5.558-5.065-0.844-1.067-1.412-1.965-1.824-2.877 0.554-0.507 1.067-1.033 1.567-1.54 0.189-0.189 0.378-0.385 0.567-0.574 1.418-1.418 1.418-3.255 0-4.674l-1.844-1.844c-0.209-0.209-0.425-0.426-0.628-0.642-0.405-0.419-0.831-0.851-1.27-1.256-0.655-0.648-1.439-0.993-2.263-0.993s-1.621 0.344-2.296 0.993c-0.007 0.007-0.007 0.007-0.014 0.014l-2.296 2.317c-0.865 0.864-1.357 1.918-1.466 3.141-0.162 1.972 0.419 3.809 0.865 5.011 1.094 2.951 2.729 5.687 5.167 8.618 2.958 3.532 6.517 6.322 10.583 8.287 1.553 0.736 3.627 1.607 5.943 1.756 0.142 0.007 0.29 0.014 0.425 0.014 1.56 0 2.87-0.561 3.897-1.675 0.007-0.014 0.020-0.020 0.027-0.034 0.351-0.425 0.756-0.81 1.182-1.222 0.29-0.277 0.588-0.567 0.878-0.871 0.669-0.696 1.020-1.506 1.020-2.337 0-0.838-0.358-1.641-1.040-2.317l-3.708-3.721zM27.708 26.935c-0.007 0-0.007 0.007 0 0-0.263 0.284-0.534 0.54-0.824 0.824-0.439 0.419-0.885 0.858-1.303 1.351-0.682 0.729-1.486 1.074-2.539 1.074-0.101 0-0.209 0-0.311-0.007-2.006-0.128-3.87-0.912-5.268-1.58-3.823-1.851-7.179-4.478-9.969-7.807-2.303-2.776-3.843-5.342-4.863-8.098-0.628-1.682-0.858-2.992-0.756-4.228 0.068-0.79 0.371-1.445 0.932-2.006l2.303-2.303c0.331-0.311 0.682-0.48 1.027-0.48 0.425 0 0.77 0.257 0.986 0.473 0.007 0.007 0.014 0.013 0.020 0.020 0.412 0.385 0.804 0.783 1.216 1.209 0.209 0.216 0.425 0.432 0.642 0.655l1.844 1.844c0.716 0.716 0.716 1.378 0 2.094-0.196 0.196-0.385 0.392-0.581 0.581-0.567 0.581-1.108 1.121-1.695 1.648-0.013 0.014-0.027 0.020-0.034 0.034-0.581 0.581-0.473 1.148-0.351 1.533 0.007 0.020 0.014 0.040 0.020 0.061 0.479 1.162 1.155 2.256 2.181 3.559l0.007 0.007c1.864 2.296 3.829 4.086 5.997 5.457 0.277 0.176 0.561 0.317 0.831 0.453 0.243 0.122 0.473 0.236 0.669 0.358 0.027 0.014 0.054 0.034 0.081 0.047 0.23 0.115 0.446 0.169 0.669 0.169 0.561 0 0.912-0.351 1.027-0.466l2.31-2.31c0.23-0.23 0.594-0.507 1.020-0.507 0.419 0 0.763 0.263 0.973 0.493 0.007 0.007 0.007 0.007 0.014 0.013l3.721 3.721c0.696 0.689 0.696 1.398 0.007 2.114z"></path>
<path fill="#ddd0a4" style="fill: var(--color10, #ddd0a4)" d="M17.293 7.612c1.77 0.297 3.377 1.135 4.66 2.418s2.114 2.891 2.418 4.66c0.074 0.446 0.459 0.756 0.898 0.756 0.054 0 0.101-0.007 0.155-0.014 0.5-0.081 0.831-0.554 0.75-1.054-0.365-2.141-1.378-4.093-2.924-5.639s-3.498-2.56-5.639-2.924c-0.5-0.081-0.966 0.25-1.054 0.743s0.236 0.973 0.736 1.054z"></path>
<path fill="#ddd0a4" style="fill: var(--color10, #ddd0a4)" d="M31.963 14.116c-0.601-3.525-2.263-6.734-4.816-9.287s-5.761-4.214-9.287-4.815c-0.493-0.088-0.959 0.25-1.047 0.743-0.081 0.5 0.25 0.966 0.75 1.054 3.147 0.534 6.018 2.026 8.3 4.302 2.283 2.283 3.769 5.153 4.302 8.3 0.074 0.446 0.459 0.756 0.898 0.756 0.054 0 0.101-0.007 0.155-0.014 0.493-0.074 0.831-0.547 0.743-1.040z"></path>
</symbol>
<symbol id="icon-untitled" viewBox="0 0 128 32">
<path fill="#fff" style="fill: var(--color6, #fff)" d="M32 16c0 8.837-7.163 16-16 16s-16-7.163-16-16c0-8.837 7.163-16 16-16s16 7.163 16 16z"></path>
<path fill="#a89060" style="fill: var(--color25, #a89060)" d="M7.481 16.299l3.678 1.372 1.434 4.614c0.062 0.312 0.436 0.374 0.686 0.187l2.057-1.683c0.187-0.187 0.499-0.187 0.748 0l3.678 2.681c0.249 0.187 0.624 0.062 0.686-0.249l2.743-13.093c0.062-0.312-0.249-0.624-0.561-0.499l-15.15 5.861c-0.374 0.125-0.374 0.686 0 0.811zM12.406 16.985l7.232-4.427c0.125-0.062 0.249 0.125 0.125 0.187l-5.923 5.549c-0.187 0.187-0.374 0.436-0.374 0.748l-0.187 1.496c0 0.187-0.312 0.249-0.374 0l-0.748-2.743c-0.187-0.312-0.062-0.686 0.249-0.811z"></path>
<path fill="#fff" style="fill: var(--color6, #fff)" d="M80 16c0 8.837-7.163 16-16 16s-16-7.163-16-16c0-8.837 7.163-16 16-16s16 7.163 16 16z"></path>
<path fill="#a89060" style="fill: var(--color25, #a89060)" d="M71.2 11.055c0-1.198-1.057-2.255-2.255-2.255h-9.090c-1.198 0-2.255 1.057-2.255 2.255v9.090c0 1.198 1.057 2.255 2.255 2.255h4.58v-5.144h-1.691v-2.255h1.691v-0.916c0-1.55 1.128-2.889 2.537-2.889h1.832v2.255h-1.832c-0.211 0-0.423 0.211-0.423 0.634v0.916h2.255v2.255h-2.255v5.144h2.396c1.198 0 2.255-1.057 2.255-2.255v-9.090z"></path>
<path fill="#fff" style="fill: var(--color6, #fff)" d="M128 16c0 8.837-7.163 16-16 16s-16-7.163-16-16c0-8.837 7.163-16 16-16s16 7.163 16 16z"></path>
<path fill="#a89060" style="fill: var(--color25, #a89060)" d="M117.265 9.6h-9.73c-1.098 0-1.935 0.837-1.935 1.935v9.729c0 1.098 0.837 1.935 1.935 1.935h9.73c1.098 0 1.935-0.837 1.935-1.935v-9.729c0-1.098-0.837-1.935-1.935-1.935zM112.4 20.48c2.25 0 4.080-1.778 4.080-3.923 0-0.366-0.052-0.785-0.157-1.098h1.15v5.545c0 0.262-0.209 0.523-0.523 0.523h-9.101c-0.262 0-0.523-0.209-0.523-0.523v-5.597h1.203c-0.105 0.366-0.158 0.732-0.158 1.098-0.052 2.197 1.778 3.975 4.028 3.975zM112.4 18.911c-1.465 0-2.615-1.151-2.615-2.563s1.15-2.563 2.615-2.563c1.465 0 2.615 1.151 2.615 2.563 0 1.465-1.15 2.563-2.615 2.563zM117.422 13.314c0 0.314-0.262 0.575-0.575 0.575h-1.465c-0.314 0-0.575-0.262-0.575-0.575v-1.412c0-0.314 0.262-0.575 0.575-0.575h1.465c0.314 0 0.575 0.262 0.575 0.575v1.412z"></path>
</symbol>
<symbol id="icon-earth" viewBox="0 0 32 32">
<path d="M16 0c-8.837 0-16 7.163-16 16s7.163 16 16 16 16-7.163 16-16-7.163-16-16-16zM16 30c-1.967 0-3.84-0.407-5.538-1.139l7.286-8.197c0.163-0.183 0.253-0.419 0.253-0.664v-3c0-0.552-0.448-1-1-1-3.531 0-7.256-3.671-7.293-3.707-0.188-0.188-0.442-0.293-0.707-0.293h-4c-0.552 0-1 0.448-1 1v6c0 0.379 0.214 0.725 0.553 0.894l3.447 1.724v5.871c-3.627-2.53-6-6.732-6-11.489 0-2.147 0.484-4.181 1.348-6h3.652c0.265 0 0.52-0.105 0.707-0.293l4-4c0.188-0.188 0.293-0.442 0.293-0.707v-2.419c1.268-0.377 2.61-0.581 4-0.581 2.2 0 4.281 0.508 6.134 1.412-0.13 0.109-0.256 0.224-0.376 0.345-1.133 1.133-1.757 2.64-1.757 4.243s0.624 3.109 1.757 4.243c1.139 1.139 2.663 1.758 4.239 1.758 0.099 0 0.198-0.002 0.297-0.007 0.432 1.619 1.211 5.833-0.263 11.635-0.014 0.055-0.022 0.109-0.026 0.163-2.541 2.596-6.084 4.208-10.004 4.208z"></path>
</symbol>

</defs>
</svg>
